<?xml version="1.0" encoding="utf-8" standalone="no"?>
<!DOCTYPE svg PUBLIC "-//W3C//DTD SVG 1.1//EN"
  "http://www.w3.org/Graphics/SVG/1.1/DTD/svg11.dtd">
<!-- Created with matplotlib (https://matplotlib.org/) -->
<svg height="288pt" version="1.1" viewBox="0 0 432 288" width="432pt" xmlns="http://www.w3.org/2000/svg" xmlns:xlink="http://www.w3.org/1999/xlink">
 <defs>
  <style type="text/css">
*{stroke-linecap:butt;stroke-linejoin:round;}
  </style>
 </defs>
 <g id="figure_1">
  <g id="patch_1">
   <path d="M 0 288 
L 432 288 
L 432 0 
L 0 0 
z
" style="fill:#ffffff;"/>
  </g>
  <g id="axes_1">
   <g id="patch_2">
    <path d="M 49.175 236.0608 
L 411.6 236.0608 
L 411.6 39.2 
L 49.175 39.2 
z
" style="fill:#ffffff;"/>
   </g>
   <g id="patch_3">
    <path clip-path="url(#p4d1ee55bb6)" d="M 65.648864 236.0608 
L 212.083207 236.0608 
L 212.083207 125.582519 
L 65.648864 125.582519 
z
" style="fill:#1f77b4;opacity:0.5;"/>
   </g>
   <g id="patch_4">
    <path clip-path="url(#p4d1ee55bb6)" d="M 248.691793 236.0608 
L 395.126136 236.0608 
L 395.126136 88.612061 
L 248.691793 88.612061 
z
" style="fill:#1f77b4;opacity:0.5;"/>
   </g>
   <g id="matplotlib.axis_1">
    <g id="xtick_1">
     <g id="line2d_1">
      <defs>
       <path d="M 0 0 
L 0 3.5 
" id="ma731976600" style="stroke:#000000;stroke-width:0.8;"/>
      </defs>
      <g>
       <use style="stroke:#000000;stroke-width:0.8;" x="138.866035" xlink:href="#ma731976600" y="236.0608"/>
      </g>
     </g>
     <g id="text_1">
      <!-- Female -->
      <defs>
       <path d="M 9.8125 72.90625 
L 51.703125 72.90625 
L 51.703125 64.59375 
L 19.671875 64.59375 
L 19.671875 43.109375 
L 48.578125 43.109375 
L 48.578125 34.8125 
L 19.671875 34.8125 
L 19.671875 0 
L 9.8125 0 
z
" id="DejaVuSans-70"/>
       <path d="M 56.203125 29.59375 
L 56.203125 25.203125 
L 14.890625 25.203125 
Q 15.484375 15.921875 20.484375 11.0625 
Q 25.484375 6.203125 34.421875 6.203125 
Q 39.59375 6.203125 44.453125 7.46875 
Q 49.3125 8.734375 54.109375 11.28125 
L 54.109375 2.78125 
Q 49.265625 0.734375 44.1875 -0.34375 
Q 39.109375 -1.421875 33.890625 -1.421875 
Q 20.796875 -1.421875 13.15625 6.1875 
Q 5.515625 13.8125 5.515625 26.8125 
Q 5.515625 40.234375 12.765625 48.109375 
Q 20.015625 56 32.328125 56 
Q 43.359375 56 49.78125 48.890625 
Q 56.203125 41.796875 56.203125 29.59375 
z
M 47.21875 32.234375 
Q 47.125 39.59375 43.09375 43.984375 
Q 39.0625 48.390625 32.421875 48.390625 
Q 24.90625 48.390625 20.390625 44.140625 
Q 15.875 39.890625 15.1875 32.171875 
z
" id="DejaVuSans-101"/>
       <path d="M 52 44.1875 
Q 55.375 50.25 60.0625 53.125 
Q 64.75 56 71.09375 56 
Q 79.640625 56 84.28125 50.015625 
Q 88.921875 44.046875 88.921875 33.015625 
L 88.921875 0 
L 79.890625 0 
L 79.890625 32.71875 
Q 79.890625 40.578125 77.09375 44.375 
Q 74.3125 48.1875 68.609375 48.1875 
Q 61.625 48.1875 57.5625 43.546875 
Q 53.515625 38.921875 53.515625 30.90625 
L 53.515625 0 
L 44.484375 0 
L 44.484375 32.71875 
Q 44.484375 40.625 41.703125 44.40625 
Q 38.921875 48.1875 33.109375 48.1875 
Q 26.21875 48.1875 22.15625 43.53125 
Q 18.109375 38.875 18.109375 30.90625 
L 18.109375 0 
L 9.078125 0 
L 9.078125 54.6875 
L 18.109375 54.6875 
L 18.109375 46.1875 
Q 21.1875 51.21875 25.484375 53.609375 
Q 29.78125 56 35.6875 56 
Q 41.65625 56 45.828125 52.96875 
Q 50 49.953125 52 44.1875 
z
" id="DejaVuSans-109"/>
       <path d="M 34.28125 27.484375 
Q 23.390625 27.484375 19.1875 25 
Q 14.984375 22.515625 14.984375 16.5 
Q 14.984375 11.71875 18.140625 8.90625 
Q 21.296875 6.109375 26.703125 6.109375 
Q 34.1875 6.109375 38.703125 11.40625 
Q 43.21875 16.703125 43.21875 25.484375 
L 43.21875 27.484375 
z
M 52.203125 31.203125 
L 52.203125 0 
L 43.21875 0 
L 43.21875 8.296875 
Q 40.140625 3.328125 35.546875 0.953125 
Q 30.953125 -1.421875 24.3125 -1.421875 
Q 15.921875 -1.421875 10.953125 3.296875 
Q 6 8.015625 6 15.921875 
Q 6 25.140625 12.171875 29.828125 
Q 18.359375 34.515625 30.609375 34.515625 
L 43.21875 34.515625 
L 43.21875 35.40625 
Q 43.21875 41.609375 39.140625 45 
Q 35.0625 48.390625 27.6875 48.390625 
Q 23 48.390625 18.546875 47.265625 
Q 14.109375 46.140625 10.015625 43.890625 
L 10.015625 52.203125 
Q 14.9375 54.109375 19.578125 55.046875 
Q 24.21875 56 28.609375 56 
Q 40.484375 56 46.34375 49.84375 
Q 52.203125 43.703125 52.203125 31.203125 
z
" id="DejaVuSans-97"/>
       <path d="M 9.421875 75.984375 
L 18.40625 75.984375 
L 18.40625 0 
L 9.421875 0 
z
" id="DejaVuSans-108"/>
      </defs>
      <g transform="translate(120.517598 250.659238)scale(0.1 -0.1)">
       <use xlink:href="#DejaVuSans-70"/>
       <use x="57.441406" xlink:href="#DejaVuSans-101"/>
       <use x="118.964844" xlink:href="#DejaVuSans-109"/>
       <use x="216.376953" xlink:href="#DejaVuSans-97"/>
       <use x="277.65625" xlink:href="#DejaVuSans-108"/>
       <use x="305.439453" xlink:href="#DejaVuSans-101"/>
      </g>
     </g>
    </g>
    <g id="xtick_2">
     <g id="line2d_2">
      <g>
       <use style="stroke:#000000;stroke-width:0.8;" x="321.908965" xlink:href="#ma731976600" y="236.0608"/>
      </g>
     </g>
     <g id="text_2">
      <!-- Male -->
      <defs>
       <path d="M 9.8125 72.90625 
L 24.515625 72.90625 
L 43.109375 23.296875 
L 61.8125 72.90625 
L 76.515625 72.90625 
L 76.515625 0 
L 66.890625 0 
L 66.890625 64.015625 
L 48.09375 14.015625 
L 38.1875 14.015625 
L 19.390625 64.015625 
L 19.390625 0 
L 9.8125 0 
z
" id="DejaVuSans-77"/>
      </defs>
      <g transform="translate(310.065215 250.659238)scale(0.1 -0.1)">
       <use xlink:href="#DejaVuSans-77"/>
       <use x="86.279297" xlink:href="#DejaVuSans-97"/>
       <use x="147.558594" xlink:href="#DejaVuSans-108"/>
       <use x="175.341797" xlink:href="#DejaVuSans-101"/>
      </g>
     </g>
    </g>
   </g>
   <g id="matplotlib.axis_2">
    <g id="ytick_1">
     <g id="line2d_3">
      <defs>
       <path d="M 0 0 
L -3.5 0 
" id="ma0e2211d82" style="stroke:#000000;stroke-width:0.8;"/>
      </defs>
      <g>
       <use style="stroke:#000000;stroke-width:0.8;" x="49.175" xlink:href="#ma0e2211d82" y="236.0608"/>
      </g>
     </g>
     <g id="text_3">
      <!-- 0 -->
      <defs>
       <path d="M 31.78125 66.40625 
Q 24.171875 66.40625 20.328125 58.90625 
Q 16.5 51.421875 16.5 36.375 
Q 16.5 21.390625 20.328125 13.890625 
Q 24.171875 6.390625 31.78125 6.390625 
Q 39.453125 6.390625 43.28125 13.890625 
Q 47.125 21.390625 47.125 36.375 
Q 47.125 51.421875 43.28125 58.90625 
Q 39.453125 66.40625 31.78125 66.40625 
z
M 31.78125 74.21875 
Q 44.046875 74.21875 50.515625 64.515625 
Q 56.984375 54.828125 56.984375 36.375 
Q 56.984375 17.96875 50.515625 8.265625 
Q 44.046875 -1.421875 31.78125 -1.421875 
Q 19.53125 -1.421875 13.0625 8.265625 
Q 6.59375 17.96875 6.59375 36.375 
Q 6.59375 54.828125 13.0625 64.515625 
Q 19.53125 74.21875 31.78125 74.21875 
z
" id="DejaVuSans-48"/>
      </defs>
      <g transform="translate(35.8125 239.860019)scale(0.1 -0.1)">
       <use xlink:href="#DejaVuSans-48"/>
      </g>
     </g>
    </g>
    <g id="ytick_2">
     <g id="line2d_4">
      <g>
       <use style="stroke:#000000;stroke-width:0.8;" x="49.175" xlink:href="#ma0e2211d82" y="196.68864"/>
      </g>
     </g>
     <g id="text_4">
      <!-- 2000 -->
      <defs>
       <path d="M 19.1875 8.296875 
L 53.609375 8.296875 
L 53.609375 0 
L 7.328125 0 
L 7.328125 8.296875 
Q 12.9375 14.109375 22.625 23.890625 
Q 32.328125 33.6875 34.8125 36.53125 
Q 39.546875 41.84375 41.421875 45.53125 
Q 43.3125 49.21875 43.3125 52.78125 
Q 43.3125 58.59375 39.234375 62.25 
Q 35.15625 65.921875 28.609375 65.921875 
Q 23.96875 65.921875 18.8125 64.3125 
Q 13.671875 62.703125 7.8125 59.421875 
L 7.8125 69.390625 
Q 13.765625 71.78125 18.9375 73 
Q 24.125 74.21875 28.421875 74.21875 
Q 39.75 74.21875 46.484375 68.546875 
Q 53.21875 62.890625 53.21875 53.421875 
Q 53.21875 48.921875 51.53125 44.890625 
Q 49.859375 40.875 45.40625 35.40625 
Q 44.1875 33.984375 37.640625 27.21875 
Q 31.109375 20.453125 19.1875 8.296875 
z
" id="DejaVuSans-50"/>
      </defs>
      <g transform="translate(16.725 200.487859)scale(0.1 -0.1)">
       <use xlink:href="#DejaVuSans-50"/>
       <use x="63.623047" xlink:href="#DejaVuSans-48"/>
       <use x="127.246094" xlink:href="#DejaVuSans-48"/>
       <use x="190.869141" xlink:href="#DejaVuSans-48"/>
      </g>
     </g>
    </g>
    <g id="ytick_3">
     <g id="line2d_5">
      <g>
       <use style="stroke:#000000;stroke-width:0.8;" x="49.175" xlink:href="#ma0e2211d82" y="157.31648"/>
      </g>
     </g>
     <g id="text_5">
      <!-- 4000 -->
      <defs>
       <path d="M 37.796875 64.3125 
L 12.890625 25.390625 
L 37.796875 25.390625 
z
M 35.203125 72.90625 
L 47.609375 72.90625 
L 47.609375 25.390625 
L 58.015625 25.390625 
L 58.015625 17.1875 
L 47.609375 17.1875 
L 47.609375 0 
L 37.796875 0 
L 37.796875 17.1875 
L 4.890625 17.1875 
L 4.890625 26.703125 
z
" id="DejaVuSans-52"/>
      </defs>
      <g transform="translate(16.725 161.115699)scale(0.1 -0.1)">
       <use xlink:href="#DejaVuSans-52"/>
       <use x="63.623047" xlink:href="#DejaVuSans-48"/>
       <use x="127.246094" xlink:href="#DejaVuSans-48"/>
       <use x="190.869141" xlink:href="#DejaVuSans-48"/>
      </g>
     </g>
    </g>
    <g id="ytick_4">
     <g id="line2d_6">
      <g>
       <use style="stroke:#000000;stroke-width:0.8;" x="49.175" xlink:href="#ma0e2211d82" y="117.94432"/>
      </g>
     </g>
     <g id="text_6">
      <!-- 6000 -->
      <defs>
       <path d="M 33.015625 40.375 
Q 26.375 40.375 22.484375 35.828125 
Q 18.609375 31.296875 18.609375 23.390625 
Q 18.609375 15.53125 22.484375 10.953125 
Q 26.375 6.390625 33.015625 6.390625 
Q 39.65625 6.390625 43.53125 10.953125 
Q 47.40625 15.53125 47.40625 23.390625 
Q 47.40625 31.296875 43.53125 35.828125 
Q 39.65625 40.375 33.015625 40.375 
z
M 52.59375 71.296875 
L 52.59375 62.3125 
Q 48.875 64.0625 45.09375 64.984375 
Q 41.3125 65.921875 37.59375 65.921875 
Q 27.828125 65.921875 22.671875 59.328125 
Q 17.53125 52.734375 16.796875 39.40625 
Q 19.671875 43.65625 24.015625 45.921875 
Q 28.375 48.1875 33.59375 48.1875 
Q 44.578125 48.1875 50.953125 41.515625 
Q 57.328125 34.859375 57.328125 23.390625 
Q 57.328125 12.15625 50.6875 5.359375 
Q 44.046875 -1.421875 33.015625 -1.421875 
Q 20.359375 -1.421875 13.671875 8.265625 
Q 6.984375 17.96875 6.984375 36.375 
Q 6.984375 53.65625 15.1875 63.9375 
Q 23.390625 74.21875 37.203125 74.21875 
Q 40.921875 74.21875 44.703125 73.484375 
Q 48.484375 72.75 52.59375 71.296875 
z
" id="DejaVuSans-54"/>
      </defs>
      <g transform="translate(16.725 121.743539)scale(0.1 -0.1)">
       <use xlink:href="#DejaVuSans-54"/>
       <use x="63.623047" xlink:href="#DejaVuSans-48"/>
       <use x="127.246094" xlink:href="#DejaVuSans-48"/>
       <use x="190.869141" xlink:href="#DejaVuSans-48"/>
      </g>
     </g>
    </g>
    <g id="ytick_5">
     <g id="line2d_7">
      <g>
       <use style="stroke:#000000;stroke-width:0.8;" x="49.175" xlink:href="#ma0e2211d82" y="78.57216"/>
      </g>
     </g>
     <g id="text_7">
      <!-- 8000 -->
      <defs>
       <path d="M 31.78125 34.625 
Q 24.75 34.625 20.71875 30.859375 
Q 16.703125 27.09375 16.703125 20.515625 
Q 16.703125 13.921875 20.71875 10.15625 
Q 24.75 6.390625 31.78125 6.390625 
Q 38.8125 6.390625 42.859375 10.171875 
Q 46.921875 13.96875 46.921875 20.515625 
Q 46.921875 27.09375 42.890625 30.859375 
Q 38.875 34.625 31.78125 34.625 
z
M 21.921875 38.8125 
Q 15.578125 40.375 12.03125 44.71875 
Q 8.5 49.078125 8.5 55.328125 
Q 8.5 64.0625 14.71875 69.140625 
Q 20.953125 74.21875 31.78125 74.21875 
Q 42.671875 74.21875 48.875 69.140625 
Q 55.078125 64.0625 55.078125 55.328125 
Q 55.078125 49.078125 51.53125 44.71875 
Q 48 40.375 41.703125 38.8125 
Q 48.828125 37.15625 52.796875 32.3125 
Q 56.78125 27.484375 56.78125 20.515625 
Q 56.78125 9.90625 50.3125 4.234375 
Q 43.84375 -1.421875 31.78125 -1.421875 
Q 19.734375 -1.421875 13.25 4.234375 
Q 6.78125 9.90625 6.78125 20.515625 
Q 6.78125 27.484375 10.78125 32.3125 
Q 14.796875 37.15625 21.921875 38.8125 
z
M 18.3125 54.390625 
Q 18.3125 48.734375 21.84375 45.5625 
Q 25.390625 42.390625 31.78125 42.390625 
Q 38.140625 42.390625 41.71875 45.5625 
Q 45.3125 48.734375 45.3125 54.390625 
Q 45.3125 60.0625 41.71875 63.234375 
Q 38.140625 66.40625 31.78125 66.40625 
Q 25.390625 66.40625 21.84375 63.234375 
Q 18.3125 60.0625 18.3125 54.390625 
z
" id="DejaVuSans-56"/>
      </defs>
      <g transform="translate(16.725 82.371379)scale(0.1 -0.1)">
       <use xlink:href="#DejaVuSans-56"/>
       <use x="63.623047" xlink:href="#DejaVuSans-48"/>
       <use x="127.246094" xlink:href="#DejaVuSans-48"/>
       <use x="190.869141" xlink:href="#DejaVuSans-48"/>
      </g>
     </g>
    </g>
    <g id="ytick_6">
     <g id="line2d_8">
      <g>
       <use style="stroke:#000000;stroke-width:0.8;" x="49.175" xlink:href="#ma0e2211d82" y="39.2"/>
      </g>
     </g>
     <g id="text_8">
      <!-- 10000 -->
      <defs>
       <path d="M 12.40625 8.296875 
L 28.515625 8.296875 
L 28.515625 63.921875 
L 10.984375 60.40625 
L 10.984375 69.390625 
L 28.421875 72.90625 
L 38.28125 72.90625 
L 38.28125 8.296875 
L 54.390625 8.296875 
L 54.390625 0 
L 12.40625 0 
z
" id="DejaVuSans-49"/>
      </defs>
      <g transform="translate(10.3625 42.999219)scale(0.1 -0.1)">
       <use xlink:href="#DejaVuSans-49"/>
       <use x="63.623047" xlink:href="#DejaVuSans-48"/>
       <use x="127.246094" xlink:href="#DejaVuSans-48"/>
       <use x="190.869141" xlink:href="#DejaVuSans-48"/>
       <use x="254.492188" xlink:href="#DejaVuSans-48"/>
      </g>
     </g>
    </g>
   </g>
   <g id="patch_5">
    <path d="M 49.175 236.0608 
L 49.175 39.2 
" style="fill:none;stroke:#000000;stroke-linecap:square;stroke-linejoin:miter;stroke-width:0.8;"/>
   </g>
   <g id="patch_6">
    <path d="M 411.6 236.0608 
L 411.6 39.2 
" style="fill:none;stroke:#000000;stroke-linecap:square;stroke-linejoin:miter;stroke-width:0.8;"/>
   </g>
   <g id="patch_7">
    <path d="M 49.175 236.0608 
L 411.6 236.0608 
" style="fill:none;stroke:#000000;stroke-linecap:square;stroke-linejoin:miter;stroke-width:0.8;"/>
   </g>
   <g id="patch_8">
    <path d="M 49.175 39.2 
L 411.6 39.2 
" style="fill:none;stroke:#000000;stroke-linecap:square;stroke-linejoin:miter;stroke-width:0.8;"/>
   </g>
   <g id="text_9">
    <!-- 5,612 -->
    <defs>
     <path d="M 10.796875 72.90625 
L 49.515625 72.90625 
L 49.515625 64.59375 
L 19.828125 64.59375 
L 19.828125 46.734375 
Q 21.96875 47.46875 24.109375 47.828125 
Q 26.265625 48.1875 28.421875 48.1875 
Q 40.625 48.1875 47.75 41.5 
Q 54.890625 34.8125 54.890625 23.390625 
Q 54.890625 11.625 47.5625 5.09375 
Q 40.234375 -1.421875 26.90625 -1.421875 
Q 22.3125 -1.421875 17.546875 -0.640625 
Q 12.796875 0.140625 7.71875 1.703125 
L 7.71875 11.625 
Q 12.109375 9.234375 16.796875 8.0625 
Q 21.484375 6.890625 26.703125 6.890625 
Q 35.15625 6.890625 40.078125 11.328125 
Q 45.015625 15.765625 45.015625 23.390625 
Q 45.015625 31 40.078125 35.4375 
Q 35.15625 39.890625 26.703125 39.890625 
Q 22.75 39.890625 18.8125 39.015625 
Q 14.890625 38.140625 10.796875 36.28125 
z
" id="DejaVuSans-53"/>
     <path d="M 11.71875 12.40625 
L 22.015625 12.40625 
L 22.015625 4 
L 14.015625 -11.625 
L 7.71875 -11.625 
L 11.71875 4 
z
" id="DejaVuSans-44"/>
    </defs>
    <g style="fill:#696969;" transform="translate(124.551973 107.742988)scale(0.1 -0.1)">
     <use xlink:href="#DejaVuSans-53"/>
     <use x="63.623047" xlink:href="#DejaVuSans-44"/>
     <use x="95.410156" xlink:href="#DejaVuSans-54"/>
     <use x="159.033203" xlink:href="#DejaVuSans-49"/>
     <use x="222.65625" xlink:href="#DejaVuSans-50"/>
    </g>
    <!-- (43%) -->
    <defs>
     <path d="M 31 75.875 
Q 24.46875 64.65625 21.28125 53.65625 
Q 18.109375 42.671875 18.109375 31.390625 
Q 18.109375 20.125 21.3125 9.0625 
Q 24.515625 -2 31 -13.1875 
L 23.1875 -13.1875 
Q 15.875 -1.703125 12.234375 9.375 
Q 8.59375 20.453125 8.59375 31.390625 
Q 8.59375 42.28125 12.203125 53.3125 
Q 15.828125 64.359375 23.1875 75.875 
z
" id="DejaVuSans-40"/>
     <path d="M 40.578125 39.3125 
Q 47.65625 37.796875 51.625 33 
Q 55.609375 28.21875 55.609375 21.1875 
Q 55.609375 10.40625 48.1875 4.484375 
Q 40.765625 -1.421875 27.09375 -1.421875 
Q 22.515625 -1.421875 17.65625 -0.515625 
Q 12.796875 0.390625 7.625 2.203125 
L 7.625 11.71875 
Q 11.71875 9.328125 16.59375 8.109375 
Q 21.484375 6.890625 26.8125 6.890625 
Q 36.078125 6.890625 40.9375 10.546875 
Q 45.796875 14.203125 45.796875 21.1875 
Q 45.796875 27.640625 41.28125 31.265625 
Q 36.765625 34.90625 28.71875 34.90625 
L 20.21875 34.90625 
L 20.21875 43.015625 
L 29.109375 43.015625 
Q 36.375 43.015625 40.234375 45.921875 
Q 44.09375 48.828125 44.09375 54.296875 
Q 44.09375 59.90625 40.109375 62.90625 
Q 36.140625 65.921875 28.71875 65.921875 
Q 24.65625 65.921875 20.015625 65.03125 
Q 15.375 64.15625 9.8125 62.3125 
L 9.8125 71.09375 
Q 15.4375 72.65625 20.34375 73.4375 
Q 25.25 74.21875 29.59375 74.21875 
Q 40.828125 74.21875 47.359375 69.109375 
Q 53.90625 64.015625 53.90625 55.328125 
Q 53.90625 49.265625 50.4375 45.09375 
Q 46.96875 40.921875 40.578125 39.3125 
z
" id="DejaVuSans-51"/>
     <path d="M 72.703125 32.078125 
Q 68.453125 32.078125 66.03125 28.46875 
Q 63.625 24.859375 63.625 18.40625 
Q 63.625 12.0625 66.03125 8.421875 
Q 68.453125 4.78125 72.703125 4.78125 
Q 76.859375 4.78125 79.265625 8.421875 
Q 81.6875 12.0625 81.6875 18.40625 
Q 81.6875 24.8125 79.265625 28.4375 
Q 76.859375 32.078125 72.703125 32.078125 
z
M 72.703125 38.28125 
Q 80.421875 38.28125 84.953125 32.90625 
Q 89.5 27.546875 89.5 18.40625 
Q 89.5 9.28125 84.9375 3.921875 
Q 80.375 -1.421875 72.703125 -1.421875 
Q 64.890625 -1.421875 60.34375 3.921875 
Q 55.8125 9.28125 55.8125 18.40625 
Q 55.8125 27.59375 60.375 32.9375 
Q 64.9375 38.28125 72.703125 38.28125 
z
M 22.3125 68.015625 
Q 18.109375 68.015625 15.6875 64.375 
Q 13.28125 60.75 13.28125 54.390625 
Q 13.28125 47.953125 15.671875 44.328125 
Q 18.0625 40.71875 22.3125 40.71875 
Q 26.5625 40.71875 28.96875 44.328125 
Q 31.390625 47.953125 31.390625 54.390625 
Q 31.390625 60.6875 28.953125 64.34375 
Q 26.515625 68.015625 22.3125 68.015625 
z
M 66.40625 74.21875 
L 74.21875 74.21875 
L 28.609375 -1.421875 
L 20.796875 -1.421875 
z
M 22.3125 74.21875 
Q 30.03125 74.21875 34.609375 68.875 
Q 39.203125 63.53125 39.203125 54.390625 
Q 39.203125 45.171875 34.640625 39.84375 
Q 30.078125 34.515625 22.3125 34.515625 
Q 14.546875 34.515625 10.03125 39.859375 
Q 5.515625 45.21875 5.515625 54.390625 
Q 5.515625 63.484375 10.046875 68.84375 
Q 14.59375 74.21875 22.3125 74.21875 
z
" id="DejaVuSans-37"/>
     <path d="M 8.015625 75.875 
L 15.828125 75.875 
Q 23.140625 64.359375 26.78125 53.3125 
Q 30.421875 42.28125 30.421875 31.390625 
Q 30.421875 20.453125 26.78125 9.375 
Q 23.140625 -1.703125 15.828125 -13.1875 
L 8.015625 -13.1875 
Q 14.5 -2 17.703125 9.0625 
Q 20.90625 20.125 20.90625 31.390625 
Q 20.90625 42.671875 17.703125 53.65625 
Q 14.5 64.65625 8.015625 75.875 
z
" id="DejaVuSans-41"/>
    </defs>
    <g style="fill:#696969;" transform="translate(123.851192 118.9408)scale(0.1 -0.1)">
     <use xlink:href="#DejaVuSans-40"/>
     <use x="39.013672" xlink:href="#DejaVuSans-52"/>
     <use x="102.636719" xlink:href="#DejaVuSans-51"/>
     <use x="166.259766" xlink:href="#DejaVuSans-37"/>
     <use x="261.279297" xlink:href="#DejaVuSans-41"/>
    </g>
   </g>
   <g id="text_10">
    <!-- 7,490 -->
    <defs>
     <path d="M 8.203125 72.90625 
L 55.078125 72.90625 
L 55.078125 68.703125 
L 28.609375 0 
L 18.3125 0 
L 43.21875 64.59375 
L 8.203125 64.59375 
z
" id="DejaVuSans-55"/>
     <path d="M 10.984375 1.515625 
L 10.984375 10.5 
Q 14.703125 8.734375 18.5 7.8125 
Q 22.3125 6.890625 25.984375 6.890625 
Q 35.75 6.890625 40.890625 13.453125 
Q 46.046875 20.015625 46.78125 33.40625 
Q 43.953125 29.203125 39.59375 26.953125 
Q 35.25 24.703125 29.984375 24.703125 
Q 19.046875 24.703125 12.671875 31.3125 
Q 6.296875 37.9375 6.296875 49.421875 
Q 6.296875 60.640625 12.9375 67.421875 
Q 19.578125 74.21875 30.609375 74.21875 
Q 43.265625 74.21875 49.921875 64.515625 
Q 56.59375 54.828125 56.59375 36.375 
Q 56.59375 19.140625 48.40625 8.859375 
Q 40.234375 -1.421875 26.421875 -1.421875 
Q 22.703125 -1.421875 18.890625 -0.6875 
Q 15.09375 0.046875 10.984375 1.515625 
z
M 30.609375 32.421875 
Q 37.25 32.421875 41.125 36.953125 
Q 45.015625 41.5 45.015625 49.421875 
Q 45.015625 57.28125 41.125 61.84375 
Q 37.25 66.40625 30.609375 66.40625 
Q 23.96875 66.40625 20.09375 61.84375 
Q 16.21875 57.28125 16.21875 49.421875 
Q 16.21875 41.5 20.09375 36.953125 
Q 23.96875 32.421875 30.609375 32.421875 
z
" id="DejaVuSans-57"/>
    </defs>
    <g style="fill:#696969;" transform="translate(307.594902 70.77253)scale(0.1 -0.1)">
     <use xlink:href="#DejaVuSans-55"/>
     <use x="63.623047" xlink:href="#DejaVuSans-44"/>
     <use x="95.410156" xlink:href="#DejaVuSans-52"/>
     <use x="159.033203" xlink:href="#DejaVuSans-57"/>
     <use x="222.65625" xlink:href="#DejaVuSans-48"/>
    </g>
    <!-- (57%) -->
    <g style="fill:#696969;" transform="translate(306.894121 81.970342)scale(0.1 -0.1)">
     <use xlink:href="#DejaVuSans-40"/>
     <use x="39.013672" xlink:href="#DejaVuSans-53"/>
     <use x="102.636719" xlink:href="#DejaVuSans-55"/>
     <use x="166.259766" xlink:href="#DejaVuSans-37"/>
     <use x="261.279297" xlink:href="#DejaVuSans-41"/>
    </g>
   </g>
   <g id="text_11">
    <!-- Data: nyc.gov/coronavirus - Plot: carlos-afonso.github.io/COVID-19 -->
    <defs>
     <path d="M 51.421875 32.625 
Q 51.421875 28.03125 50.703125 23.828125 
Q 50 19.625 48.4375 16.015625 
Q 46.875 12.40625 44.375 9.453125 
Q 41.890625 6.5 38.28125 4.390625 
Q 34.671875 2.296875 29.875 1.140625 
Q 25.09375 0 19 0 
L 5.328125 0 
L 5.328125 63.8125 
L 21.78125 63.8125 
Q 36.71875 63.8125 44.0625 56.125 
Q 51.421875 48.4375 51.421875 32.625 
z
M 42.28125 31.984375 
Q 42.28125 38.765625 41.015625 43.453125 
Q 39.75 48.140625 37.15625 51.015625 
Q 34.578125 53.90625 30.671875 55.203125 
Q 26.765625 56.5 21.484375 56.5 
L 14.015625 56.5 
L 14.015625 7.515625 
L 20.515625 7.515625 
Q 42.28125 7.515625 42.28125 31.984375 
z
" id="Consolas-68"/>
     <path d="M 39.3125 0 
L 39.109375 6.59375 
Q 35.109375 2.640625 30.984375 0.875 
Q 26.859375 -0.875 22.3125 -0.875 
Q 18.109375 -0.875 15.125 0.1875 
Q 12.15625 1.265625 10.21875 3.140625 
Q 8.296875 5.03125 7.390625 7.5625 
Q 6.5 10.109375 6.5 13.09375 
Q 6.5 20.453125 11.984375 24.625 
Q 17.484375 28.8125 28.21875 28.8125 
L 38.375 28.8125 
L 38.375 33.109375 
Q 38.375 37.453125 35.59375 40.0625 
Q 32.8125 42.671875 27.09375 42.671875 
Q 22.953125 42.671875 18.921875 41.75 
Q 14.890625 40.828125 10.59375 39.109375 
L 10.59375 46.78125 
Q 12.203125 47.359375 14.171875 47.921875 
Q 16.15625 48.484375 18.359375 48.921875 
Q 20.5625 49.359375 22.953125 49.625 
Q 25.34375 49.90625 27.78125 49.90625 
Q 32.234375 49.90625 35.796875 48.921875 
Q 39.359375 47.953125 41.8125 45.953125 
Q 44.28125 43.953125 45.59375 40.921875 
Q 46.921875 37.890625 46.921875 33.796875 
L 46.921875 0 
z
M 38.375 22.3125 
L 27.59375 22.3125 
Q 24.421875 22.3125 22.125 21.671875 
Q 19.828125 21.046875 18.359375 19.875 
Q 16.890625 18.703125 16.1875 17.0625 
Q 15.484375 15.4375 15.484375 13.375 
Q 15.484375 11.96875 15.921875 10.671875 
Q 16.359375 9.375 17.328125 8.375 
Q 18.3125 7.375 19.875 6.78125 
Q 21.4375 6.203125 23.6875 6.203125 
Q 26.609375 6.203125 30.390625 7.984375 
Q 34.1875 9.765625 38.375 13.625 
z
" id="Consolas-97"/>
     <path d="M 47.3125 0.6875 
Q 44.4375 -0.046875 41.359375 -0.359375 
Q 38.28125 -0.6875 35.109375 -0.6875 
Q 25.875 -0.6875 21.328125 3.484375 
Q 16.796875 7.671875 16.796875 16.3125 
L 16.796875 41.890625 
L 3.078125 41.890625 
L 3.078125 49.03125 
L 16.796875 49.03125 
L 16.796875 62.5 
L 25.296875 64.703125 
L 25.296875 49.03125 
L 47.3125 49.03125 
L 47.3125 41.890625 
L 25.296875 41.890625 
L 25.296875 17 
Q 25.296875 11.71875 28.09375 9.109375 
Q 30.90625 6.5 36.375 6.5 
Q 38.71875 6.5 41.5 6.859375 
Q 44.28125 7.234375 47.3125 8.015625 
z
" id="Consolas-116"/>
     <path d="M 27.484375 49.90625 
Q 29 49.90625 30.359375 49.296875 
Q 31.734375 48.6875 32.765625 47.65625 
Q 33.796875 46.625 34.40625 45.25 
Q 35.015625 43.890625 35.015625 42.390625 
Q 35.015625 40.828125 34.40625 39.484375 
Q 33.796875 38.140625 32.765625 37.109375 
Q 31.734375 36.078125 30.359375 35.484375 
Q 29 34.90625 27.484375 34.90625 
Q 25.921875 34.90625 24.578125 35.484375 
Q 23.25 36.078125 22.21875 37.109375 
Q 21.1875 38.140625 20.59375 39.484375 
Q 20.015625 40.828125 20.015625 42.390625 
Q 20.015625 43.890625 20.59375 45.25 
Q 21.1875 46.625 22.21875 47.65625 
Q 23.25 48.6875 24.578125 49.296875 
Q 25.921875 49.90625 27.484375 49.90625 
z
M 27.484375 14.109375 
Q 29 14.109375 30.359375 13.5 
Q 31.734375 12.890625 32.765625 11.859375 
Q 33.796875 10.84375 34.40625 9.46875 
Q 35.015625 8.109375 35.015625 6.59375 
Q 35.015625 5.03125 34.40625 3.6875 
Q 33.796875 2.34375 32.765625 1.3125 
Q 31.734375 0.296875 30.359375 -0.28125 
Q 29 -0.875 27.484375 -0.875 
Q 25.921875 -0.875 24.578125 -0.28125 
Q 23.25 0.296875 22.21875 1.3125 
Q 21.1875 2.34375 20.59375 3.6875 
Q 20.015625 5.03125 20.015625 6.59375 
Q 20.015625 8.109375 20.59375 9.46875 
Q 21.1875 10.84375 22.21875 11.859375 
Q 23.25 12.890625 24.578125 13.5 
Q 25.921875 14.109375 27.484375 14.109375 
z
" id="Consolas-58"/>
     <path id="Consolas-32"/>
     <path d="M 7.8125 49.03125 
L 15.375 49.03125 
L 15.71875 41.109375 
Q 17.875 43.65625 19.875 45.328125 
Q 21.875 47.015625 23.796875 48.046875 
Q 25.734375 49.078125 27.734375 49.484375 
Q 29.734375 49.90625 31.890625 49.90625 
Q 39.453125 49.90625 43.328125 45.4375 
Q 47.21875 40.96875 47.21875 31.984375 
L 47.21875 0 
L 38.71875 0 
L 38.71875 31.296875 
Q 38.71875 37.0625 36.5625 39.8125 
Q 34.421875 42.578125 30.171875 42.578125 
Q 28.609375 42.578125 27.125 42.109375 
Q 25.640625 41.65625 24.015625 40.5 
Q 22.40625 39.359375 20.53125 37.40625 
Q 18.65625 35.453125 16.3125 32.515625 
L 16.3125 0 
L 7.8125 0 
z
" id="Consolas-110"/>
     <path d="M 51.421875 49.03125 
L 34.71875 5.171875 
Q 32.125 -1.515625 29.359375 -6.34375 
Q 26.609375 -11.1875 23.328125 -14.28125 
Q 20.0625 -17.390625 16.15625 -18.84375 
Q 12.25 -20.3125 7.421875 -20.3125 
Q 6.15625 -20.3125 5.125 -20.265625 
Q 4.109375 -20.21875 2.875 -20.125 
L 2.875 -12.40625 
Q 3.953125 -12.546875 5.21875 -12.671875 
Q 6.5 -12.796875 7.90625 -12.796875 
Q 10.25 -12.796875 12.28125 -12.109375 
Q 14.3125 -11.421875 16.109375 -9.875 
Q 17.921875 -8.34375 19.578125 -5.90625 
Q 21.234375 -3.46875 22.796875 0 
L 3.21875 49.03125 
L 12.890625 49.03125 
L 25.296875 16.609375 
L 27.78125 8.984375 
L 30.609375 16.796875 
L 42.09375 49.03125 
z
" id="Consolas-121"/>
     <path d="M 45.90625 1.8125 
Q 42.578125 0.53125 39.078125 -0.078125 
Q 35.59375 -0.6875 31.890625 -0.6875 
Q 20.265625 -0.6875 13.984375 5.609375 
Q 7.71875 11.921875 7.71875 24.03125 
Q 7.71875 29.828125 9.515625 34.5625 
Q 11.328125 39.3125 14.59375 42.671875 
Q 17.875 46.046875 22.40625 47.875 
Q 26.953125 49.703125 32.421875 49.703125 
Q 36.234375 49.703125 39.546875 49.171875 
Q 42.875 48.640625 45.90625 47.40625 
L 45.90625 39.3125 
Q 42.71875 40.96875 39.421875 41.71875 
Q 36.140625 42.484375 32.625 42.484375 
Q 29.34375 42.484375 26.4375 41.234375 
Q 23.53125 39.984375 21.328125 37.640625 
Q 19.140625 35.296875 17.875 31.921875 
Q 16.609375 28.5625 16.609375 24.3125 
Q 16.609375 15.4375 20.921875 11.015625 
Q 25.25 6.59375 32.90625 6.59375 
Q 36.375 6.59375 39.625 7.375 
Q 42.875 8.15625 45.90625 9.71875 
z
" id="Consolas-99"/>
     <path d="M 27.09375 15.375 
Q 28.765625 15.375 30.25 14.734375 
Q 31.734375 14.109375 32.828125 12.984375 
Q 33.9375 11.859375 34.5625 10.375 
Q 35.203125 8.890625 35.203125 7.171875 
Q 35.203125 5.515625 34.5625 4.046875 
Q 33.9375 2.59375 32.828125 1.484375 
Q 31.734375 0.390625 30.25 -0.234375 
Q 28.765625 -0.875 27.09375 -0.875 
Q 25.390625 -0.875 23.921875 -0.234375 
Q 22.46875 0.390625 21.359375 1.484375 
Q 20.265625 2.59375 19.625 4.046875 
Q 19 5.515625 19 7.171875 
Q 19 8.890625 19.625 10.375 
Q 20.265625 11.859375 21.359375 12.984375 
Q 22.46875 14.109375 23.921875 14.734375 
Q 25.390625 15.375 27.09375 15.375 
z
" id="Consolas-46"/>
     <path d="M 43.109375 42.09375 
Q 44.484375 40.375 45.234375 38.109375 
Q 46 35.84375 46 33.203125 
Q 46 29.390625 44.609375 26.234375 
Q 43.21875 23.09375 40.671875 20.84375 
Q 38.140625 18.609375 34.59375 17.359375 
Q 31.0625 16.109375 26.8125 16.109375 
Q 23.734375 16.109375 21.046875 16.765625 
Q 18.359375 17.4375 16.796875 18.40625 
Q 15.875 17.046875 15.234375 15.8125 
Q 14.59375 14.59375 14.59375 13.09375 
Q 14.59375 11.234375 16.375 10.015625 
Q 18.171875 8.796875 21.09375 8.6875 
L 33.984375 8.203125 
Q 37.640625 8.109375 40.734375 7.28125 
Q 43.84375 6.453125 46.0625 4.890625 
Q 48.296875 3.328125 49.53125 1.03125 
Q 50.78125 -1.265625 50.78125 -4.296875 
Q 50.78125 -7.5625 49.359375 -10.484375 
Q 47.953125 -13.421875 45 -15.640625 
Q 42.046875 -17.875 37.5 -19.1875 
Q 32.953125 -20.515625 26.703125 -20.515625 
Q 20.75 -20.515625 16.578125 -19.5625 
Q 12.40625 -18.609375 9.71875 -16.921875 
Q 7.03125 -15.234375 5.8125 -12.90625 
Q 4.59375 -10.59375 4.59375 -7.8125 
Q 4.59375 -4.25 6.25 -1.5625 
Q 7.90625 1.125 11.375 3.609375 
Q 10.109375 4.203125 9.171875 5.078125 
Q 8.25 5.953125 7.65625 7 
Q 7.078125 8.0625 6.78125 9.234375 
Q 6.5 10.40625 6.5 11.53125 
Q 6.5 14.703125 7.984375 17.328125 
Q 9.46875 19.96875 11.53125 22.3125 
Q 10.59375 23.4375 9.890625 24.515625 
Q 9.1875 25.59375 8.671875 26.828125 
Q 8.15625 28.078125 7.890625 29.515625 
Q 7.625 30.953125 7.625 32.8125 
Q 7.625 36.625 9.015625 39.765625 
Q 10.40625 42.921875 12.921875 45.15625 
Q 15.4375 47.40625 18.96875 48.65625 
Q 22.515625 49.90625 26.8125 49.90625 
Q 28.609375 49.90625 30.265625 49.65625 
Q 31.9375 49.421875 33.203125 49.03125 
L 50.984375 49.03125 
L 50.984375 42.09375 
z
M 13.625 -7.078125 
Q 13.625 -10.546875 17.234375 -12.125 
Q 20.84375 -13.71875 27.296875 -13.71875 
Q 31.34375 -13.71875 34.09375 -12.984375 
Q 36.859375 -12.25 38.546875 -11.046875 
Q 40.234375 -9.859375 40.96875 -8.3125 
Q 41.703125 -6.78125 41.703125 -5.171875 
Q 41.703125 -2.203125 39.25 -0.78125 
Q 36.8125 0.640625 31.78125 0.875 
L 19 1.3125 
Q 17.390625 0.25 16.328125 -0.78125 
Q 15.28125 -1.8125 14.6875 -2.859375 
Q 14.109375 -3.90625 13.859375 -4.953125 
Q 13.625 -6 13.625 -7.078125 
z
M 16.21875 33.015625 
Q 16.21875 30.671875 17 28.71875 
Q 17.78125 26.765625 19.1875 25.390625 
Q 20.609375 24.03125 22.53125 23.265625 
Q 24.46875 22.515625 26.8125 22.515625 
Q 29.34375 22.515625 31.3125 23.359375 
Q 33.296875 24.21875 34.640625 25.6875 
Q 35.984375 27.15625 36.6875 29.046875 
Q 37.40625 30.953125 37.40625 33.015625 
Q 37.40625 35.359375 36.625 37.3125 
Q 35.84375 39.265625 34.421875 40.625 
Q 33.015625 42 31.078125 42.75 
Q 29.15625 43.5 26.8125 43.5 
Q 24.265625 43.5 22.28125 42.625 
Q 20.3125 41.75 18.96875 40.3125 
Q 17.625 38.875 16.921875 36.96875 
Q 16.21875 35.0625 16.21875 33.015625 
z
" id="Consolas-103"/>
     <path d="M 50.484375 24.90625 
Q 50.484375 19.1875 48.875 14.421875 
Q 47.265625 9.671875 44.234375 6.265625 
Q 41.21875 2.875 36.859375 1 
Q 32.515625 -0.875 27 -0.875 
Q 21.734375 -0.875 17.546875 0.75 
Q 13.375 2.390625 10.46875 5.5625 
Q 7.5625 8.734375 6.03125 13.421875 
Q 4.5 18.109375 4.5 24.21875 
Q 4.5 29.9375 6.109375 34.640625 
Q 7.71875 39.359375 10.734375 42.75 
Q 13.765625 46.140625 18.109375 48.015625 
Q 22.46875 49.90625 27.984375 49.90625 
Q 33.25 49.90625 37.421875 48.265625 
Q 41.609375 46.625 44.5 43.46875 
Q 47.40625 40.328125 48.9375 35.640625 
Q 50.484375 30.953125 50.484375 24.90625 
z
M 41.796875 24.515625 
Q 41.796875 29.046875 40.796875 32.4375 
Q 39.796875 35.84375 37.9375 38.109375 
Q 36.078125 40.375 33.421875 41.515625 
Q 30.765625 42.671875 27.484375 42.671875 
Q 23.6875 42.671875 20.96875 41.1875 
Q 18.265625 39.703125 16.53125 37.203125 
Q 14.796875 34.71875 13.984375 31.421875 
Q 13.1875 28.125 13.1875 24.515625 
Q 13.1875 19.96875 14.1875 16.546875 
Q 15.1875 13.140625 17.03125 10.859375 
Q 18.890625 8.59375 21.53125 7.4375 
Q 24.171875 6.296875 27.484375 6.296875 
Q 31.296875 6.296875 34 7.78125 
Q 36.71875 9.28125 38.453125 11.765625 
Q 40.1875 14.265625 40.984375 17.546875 
Q 41.796875 20.84375 41.796875 24.515625 
z
" id="Consolas-111"/>
     <path d="M 3.21875 49.03125 
L 12.890625 49.03125 
L 24.90625 16.609375 
L 27.484375 8.6875 
L 30.171875 16.796875 
L 42.09375 49.03125 
L 51.421875 49.03125 
L 32.171875 0 
L 22.40625 0 
z
" id="Consolas-118"/>
     <path d="M 47.21875 69 
L 13.71875 -10.5 
L 5.609375 -10.5 
L 39.109375 69 
z
" id="Consolas-47"/>
     <path d="M 9.8125 49.03125 
L 17.578125 49.03125 
L 17.828125 39.984375 
Q 22.171875 45.21875 26.390625 47.5625 
Q 30.609375 49.90625 34.90625 49.90625 
Q 42.53125 49.90625 46.453125 44.96875 
Q 50.390625 40.046875 50.09375 30.328125 
L 41.5 30.328125 
Q 41.65625 36.765625 39.625 39.671875 
Q 37.59375 42.578125 33.6875 42.578125 
Q 31.984375 42.578125 30.25 41.96875 
Q 28.515625 41.359375 26.6875 40.015625 
Q 24.859375 38.671875 22.796875 36.5625 
Q 20.75 34.46875 18.40625 31.5 
L 18.40625 0 
L 9.8125 0 
z
" id="Consolas-114"/>
     <path d="M 24.515625 42 
L 10.015625 42 
L 10.015625 49.03125 
L 33.109375 49.03125 
L 33.109375 7.078125 
L 47.703125 7.078125 
L 47.703125 0 
L 8.40625 0 
L 8.40625 7.078125 
L 24.515625 7.078125 
z
M 27.484375 69.578125 
Q 28.90625 69.578125 30.125 69.0625 
Q 31.34375 68.5625 32.25 67.625 
Q 33.15625 66.703125 33.671875 65.5 
Q 34.1875 64.3125 34.1875 62.890625 
Q 34.1875 61.53125 33.671875 60.296875 
Q 33.15625 59.078125 32.25 58.15625 
Q 31.34375 57.234375 30.125 56.71875 
Q 28.90625 56.203125 27.484375 56.203125 
Q 26.078125 56.203125 24.859375 56.71875 
Q 23.640625 57.234375 22.734375 58.15625 
Q 21.828125 59.078125 21.3125 60.296875 
Q 20.796875 61.53125 20.796875 62.890625 
Q 20.796875 64.3125 21.3125 65.5 
Q 21.828125 66.703125 22.734375 67.625 
Q 23.640625 68.5625 24.859375 69.0625 
Q 26.078125 69.578125 27.484375 69.578125 
z
" id="Consolas-105"/>
     <path d="M 47.21875 0 
L 39.59375 0 
L 39.3125 7.90625 
Q 37.109375 5.375 35.125 3.6875 
Q 33.15625 2 31.203125 0.96875 
Q 29.25 -0.046875 27.265625 -0.453125 
Q 25.296875 -0.875 23.09375 -0.875 
Q 15.53125 -0.875 11.671875 3.5625 
Q 7.8125 8.015625 7.8125 17 
L 7.8125 49.03125 
L 16.3125 49.03125 
L 16.3125 17.671875 
Q 16.3125 6.390625 24.8125 6.390625 
Q 26.375 6.390625 27.859375 6.859375 
Q 29.34375 7.328125 30.984375 8.46875 
Q 32.625 9.625 34.5 11.578125 
Q 36.375 13.53125 38.71875 16.5 
L 38.71875 49.03125 
L 47.21875 49.03125 
z
" id="Consolas-117"/>
     <path d="M 46.625 13.375 
Q 46.625 10.796875 45.75 8.734375 
Q 44.875 6.6875 43.359375 5.09375 
Q 41.84375 3.515625 39.84375 2.390625 
Q 37.84375 1.265625 35.5625 0.53125 
Q 33.296875 -0.203125 30.90625 -0.53125 
Q 28.515625 -0.875 26.21875 -0.875 
Q 21.234375 -0.875 17.0625 -0.4375 
Q 12.890625 0 8.890625 0.984375 
L 8.890625 8.796875 
Q 13.1875 7.5625 17.4375 6.921875 
Q 21.6875 6.296875 25.875 6.296875 
Q 31.984375 6.296875 34.90625 7.953125 
Q 37.84375 9.625 37.84375 12.703125 
Q 37.84375 14.015625 37.375 15.0625 
Q 36.921875 16.109375 35.6875 17.0625 
Q 34.46875 18.015625 31.90625 19.03125 
Q 29.34375 20.0625 24.90625 21.390625 
Q 21.578125 22.359375 18.765625 23.609375 
Q 15.96875 24.859375 13.90625 26.5625 
Q 11.859375 28.265625 10.6875 30.5625 
Q 9.515625 32.859375 9.515625 35.984375 
Q 9.515625 38.03125 10.46875 40.46875 
Q 11.421875 42.921875 13.71875 45.015625 
Q 16.015625 47.125 19.921875 48.515625 
Q 23.828125 49.90625 29.6875 49.90625 
Q 32.5625 49.90625 36.078125 49.578125 
Q 39.59375 49.265625 43.40625 48.484375 
L 43.40625 40.921875 
Q 39.40625 41.890625 35.8125 42.359375 
Q 32.234375 42.828125 29.59375 42.828125 
Q 26.421875 42.828125 24.25 42.328125 
Q 22.078125 41.84375 20.734375 40.984375 
Q 19.390625 40.140625 18.796875 38.984375 
Q 18.21875 37.84375 18.21875 36.53125 
Q 18.21875 35.203125 18.71875 34.125 
Q 19.234375 33.0625 20.625 32.0625 
Q 22.015625 31.0625 24.5 30.046875 
Q 27 29.046875 31 27.875 
Q 35.359375 26.609375 38.328125 25.21875 
Q 41.3125 23.828125 43.15625 22.109375 
Q 45.015625 20.40625 45.8125 18.25 
Q 46.625 16.109375 46.625 13.375 
z
" id="Consolas-115"/>
     <path d="M 42.09375 22.609375 
L 12.890625 22.609375 
L 12.890625 30.609375 
L 42.09375 30.609375 
z
" id="Consolas-45"/>
     <path d="M 49.609375 44.28125 
Q 49.609375 40.375 48.140625 36.546875 
Q 46.6875 32.71875 43.609375 29.6875 
Q 40.53125 26.65625 35.734375 24.78125 
Q 30.953125 22.90625 24.3125 22.90625 
L 16.40625 22.90625 
L 16.40625 0 
L 7.71875 0 
L 7.71875 63.8125 
L 25.6875 63.8125 
Q 30.421875 63.8125 34.765625 62.765625 
Q 39.109375 61.71875 42.40625 59.375 
Q 45.703125 57.03125 47.65625 53.3125 
Q 49.609375 49.609375 49.609375 44.28125 
z
M 40.578125 43.890625 
Q 40.578125 50.046875 36.546875 53.3125 
Q 32.515625 56.59375 25.296875 56.59375 
L 16.40625 56.59375 
L 16.40625 30.328125 
L 24.515625 30.328125 
Q 32.234375 30.328125 36.40625 33.6875 
Q 40.578125 37.0625 40.578125 43.890625 
z
" id="Consolas-80"/>
     <path d="M 24.515625 62.015625 
L 10.015625 62.015625 
L 10.015625 69 
L 33.109375 69 
L 33.109375 7.078125 
L 47.703125 7.078125 
L 47.703125 0 
L 8.40625 0 
L 8.40625 7.078125 
L 24.515625 7.078125 
z
" id="Consolas-108"/>
     <path d="M 51.3125 61.078125 
Q 44.625 62.5 39.796875 62.5 
Q 28.328125 62.5 28.328125 50.484375 
L 28.328125 41.890625 
L 49.8125 41.890625 
L 49.8125 34.8125 
L 28.328125 34.8125 
L 28.328125 0 
L 19.671875 0 
L 19.671875 34.8125 
L 3.90625 34.8125 
L 3.90625 41.890625 
L 19.671875 41.890625 
L 19.671875 50 
Q 19.671875 69.578125 40.09375 69.578125 
Q 45.171875 69.578125 51.3125 68.40625 
z
M 0 49.03125 
z
" id="Consolas-102"/>
     <path d="M 47.21875 0 
L 38.71875 0 
L 38.71875 31.296875 
Q 38.71875 36.96875 36.59375 39.765625 
Q 34.46875 42.578125 30.515625 42.578125 
Q 28.8125 42.578125 27.3125 42.109375 
Q 25.828125 41.65625 24.21875 40.5 
Q 22.609375 39.359375 20.703125 37.40625 
Q 18.796875 35.453125 16.3125 32.515625 
L 16.3125 0 
L 7.8125 0 
L 7.8125 69 
L 16.3125 69 
L 16.3125 49.03125 
L 16.015625 41.3125 
Q 18.015625 43.703125 19.9375 45.328125 
Q 21.875 46.96875 23.796875 48 
Q 25.734375 49.03125 27.734375 49.46875 
Q 29.734375 49.90625 31.890625 49.90625 
Q 39.203125 49.90625 43.203125 45.4375 
Q 47.21875 40.96875 47.21875 31.984375 
z
" id="Consolas-104"/>
     <path d="M 49.703125 25.390625 
Q 49.703125 19.28125 48.015625 14.46875 
Q 46.34375 9.671875 43.234375 6.328125 
Q 40.140625 2.984375 35.6875 1.1875 
Q 31.25 -0.59375 25.6875 -0.59375 
Q 21.34375 -0.59375 16.796875 0.234375 
Q 12.25 1.078125 7.8125 2.875 
L 7.8125 69 
L 16.3125 69 
L 16.3125 50 
L 15.921875 40.921875 
Q 19.578125 45.84375 23.75 47.875 
Q 27.9375 49.90625 32.71875 49.90625 
Q 36.921875 49.90625 40.09375 48.140625 
Q 43.265625 46.390625 45.40625 43.1875 
Q 47.5625 39.984375 48.625 35.46875 
Q 49.703125 30.953125 49.703125 25.390625 
z
M 41.015625 25 
Q 41.015625 28.859375 40.453125 32.078125 
Q 39.890625 35.296875 38.671875 37.59375 
Q 37.453125 39.890625 35.546875 41.1875 
Q 33.640625 42.484375 31 42.484375 
Q 29.390625 42.484375 27.734375 41.96875 
Q 26.078125 41.453125 24.296875 40.25 
Q 22.515625 39.0625 20.53125 37.078125 
Q 18.5625 35.109375 16.3125 32.171875 
L 16.3125 8.40625 
Q 18.796875 7.421875 21.375 6.859375 
Q 23.96875 6.296875 26.3125 6.296875 
Q 29.25 6.296875 31.90625 7.21875 
Q 34.578125 8.15625 36.59375 10.328125 
Q 38.625 12.5 39.8125 16.078125 
Q 41.015625 19.671875 41.015625 25 
z
" id="Consolas-98"/>
     <path d="M 48.578125 2.390625 
Q 40.921875 -0.78125 32.515625 -0.78125 
Q 19 -0.78125 11.75 7.296875 
Q 4.5 15.375 4.5 31.203125 
Q 4.5 38.875 6.5 45.0625 
Q 8.5 51.265625 12.203125 55.578125 
Q 15.921875 59.90625 21.1875 62.25 
Q 26.46875 64.59375 33.015625 64.59375 
Q 37.453125 64.59375 41.25 63.84375 
Q 45.0625 63.09375 48.578125 61.53125 
L 48.578125 52.984375 
Q 45.125 54.890625 41.40625 55.890625 
Q 37.703125 56.890625 33.296875 56.890625 
Q 28.8125 56.890625 25.171875 55.203125 
Q 21.53125 53.515625 18.984375 50.3125 
Q 16.453125 47.125 15.078125 42.5 
Q 13.71875 37.890625 13.71875 31.984375 
Q 13.71875 19.578125 18.75 13.28125 
Q 23.78125 6.984375 33.5 6.984375 
Q 37.59375 6.984375 41.359375 7.9375 
Q 45.125 8.890625 48.578125 10.59375 
z
" id="Consolas-67"/>
     <path d="M 52.296875 32.328125 
Q 52.296875 23.734375 50.265625 17.484375 
Q 48.25 11.234375 44.796875 7.15625 
Q 41.359375 3.078125 36.734375 1.09375 
Q 32.125 -0.875 27 -0.875 
Q 20.84375 -0.875 16.28125 1.34375 
Q 11.71875 3.5625 8.71875 7.765625 
Q 5.71875 11.96875 4.25 18 
Q 2.78125 24.03125 2.78125 31.59375 
Q 2.78125 40.09375 4.78125 46.34375 
Q 6.78125 52.59375 10.21875 56.671875 
Q 13.671875 60.75 18.265625 62.71875 
Q 22.859375 64.703125 27.984375 64.703125 
Q 34.125 64.703125 38.6875 62.453125 
Q 43.265625 60.203125 46.28125 56.03125 
Q 49.3125 51.859375 50.796875 45.84375 
Q 52.296875 39.84375 52.296875 32.328125 
z
M 43.265625 31.6875 
Q 43.265625 37.3125 42.40625 41.96875 
Q 41.546875 46.625 39.640625 50 
Q 37.75 53.375 34.734375 55.21875 
Q 31.734375 57.078125 27.484375 57.078125 
Q 23.390625 57.078125 20.4375 55.09375 
Q 17.484375 53.125 15.578125 49.734375 
Q 13.671875 46.34375 12.734375 41.765625 
Q 11.8125 37.203125 11.8125 32.078125 
Q 11.8125 26.421875 12.6875 21.75 
Q 13.578125 17.09375 15.453125 13.75 
Q 17.328125 10.40625 20.3125 8.546875 
Q 23.296875 6.6875 27.484375 6.6875 
Q 31.59375 6.6875 34.5625 8.65625 
Q 37.546875 10.640625 39.46875 14.03125 
Q 41.40625 17.4375 42.328125 21.96875 
Q 43.265625 26.515625 43.265625 31.6875 
z
" id="Consolas-79"/>
     <path d="M 54.78125 63.8125 
L 33.109375 0 
L 21.390625 0 
L 0.203125 63.8125 
L 10.015625 63.8125 
L 23.78125 20.796875 
L 27.6875 8.203125 
L 31.6875 20.796875 
L 45.515625 63.8125 
z
" id="Consolas-86"/>
     <path d="M 23.09375 56.5 
L 8.40625 56.5 
L 8.40625 63.8125 
L 46.578125 63.8125 
L 46.578125 56.5 
L 31.890625 56.5 
L 31.890625 7.421875 
L 46.578125 7.421875 
L 46.578125 0 
L 8.40625 0 
L 8.40625 7.421875 
L 23.09375 7.421875 
z
" id="Consolas-73"/>
     <path d="M 48.6875 0 
L 8.59375 0 
L 8.59375 7.90625 
L 25 7.90625 
L 25 54.5 
L 9.71875 46.1875 
L 6.59375 53.421875 
L 26.90625 64.109375 
L 34.421875 64.109375 
L 34.421875 7.90625 
L 48.6875 7.90625 
z
" id="Consolas-49"/>
     <path d="M 48.875 35.5 
Q 48.875 26.171875 46.625 19.453125 
Q 44.390625 12.75 39.984375 8.421875 
Q 35.59375 4.109375 29.09375 2.046875 
Q 22.609375 0 14.109375 0 
L 8.796875 0 
L 8.796875 7.421875 
L 14.703125 7.421875 
Q 21 7.421875 25.578125 8.6875 
Q 30.171875 9.96875 33.21875 12.421875 
Q 36.28125 14.890625 37.890625 18.421875 
Q 39.5 21.96875 39.890625 26.515625 
L 40.09375 28.515625 
Q 37.015625 26.703125 33 25.609375 
Q 29 24.515625 24.3125 24.515625 
Q 19.484375 24.515625 15.8125 25.921875 
Q 12.15625 27.34375 9.734375 29.875 
Q 7.328125 32.421875 6.109375 35.90625 
Q 4.890625 39.40625 4.890625 43.5 
Q 4.890625 47.953125 6.5 51.8125 
Q 8.109375 55.671875 11.015625 58.515625 
Q 13.921875 61.375 17.96875 63.03125 
Q 22.015625 64.703125 26.90625 64.703125 
Q 31.640625 64.703125 35.671875 63.140625 
Q 39.703125 61.578125 42.625 58.078125 
Q 45.5625 54.59375 47.21875 49.015625 
Q 48.875 43.453125 48.875 35.5 
z
M 26.515625 57.71875 
Q 23.78125 57.71875 21.453125 56.8125 
Q 19.140625 55.90625 17.453125 54.171875 
Q 15.765625 52.4375 14.78125 49.890625 
Q 13.8125 47.359375 13.8125 44.09375 
Q 13.8125 41.109375 14.515625 38.765625 
Q 15.234375 36.421875 16.71875 34.78125 
Q 18.21875 33.15625 20.5625 32.265625 
Q 22.90625 31.390625 26.125 31.390625 
Q 27.9375 31.390625 29.859375 31.734375 
Q 31.78125 32.078125 33.609375 32.65625 
Q 35.453125 33.25 37.109375 34.03125 
Q 38.765625 34.8125 40.09375 35.6875 
Q 40.09375 42 39.15625 46.21875 
Q 38.234375 50.4375 36.46875 53 
Q 34.71875 55.5625 32.203125 56.640625 
Q 29.6875 57.71875 26.515625 57.71875 
z
" id="Consolas-57"/>
    </defs>
    <g transform="translate(29.040278 271.495744)scale(0.1 -0.1)">
     <use xlink:href="#Consolas-68"/>
     <use x="54.980469" xlink:href="#Consolas-97"/>
     <use x="109.960938" xlink:href="#Consolas-116"/>
     <use x="164.941406" xlink:href="#Consolas-97"/>
     <use x="219.921875" xlink:href="#Consolas-58"/>
     <use x="274.902344" xlink:href="#Consolas-32"/>
     <use x="329.882812" xlink:href="#Consolas-110"/>
     <use x="384.863281" xlink:href="#Consolas-121"/>
     <use x="439.84375" xlink:href="#Consolas-99"/>
     <use x="494.824219" xlink:href="#Consolas-46"/>
     <use x="549.804688" xlink:href="#Consolas-103"/>
     <use x="604.785156" xlink:href="#Consolas-111"/>
     <use x="659.765625" xlink:href="#Consolas-118"/>
     <use x="714.746094" xlink:href="#Consolas-47"/>
     <use x="769.726562" xlink:href="#Consolas-99"/>
     <use x="824.707031" xlink:href="#Consolas-111"/>
     <use x="879.6875" xlink:href="#Consolas-114"/>
     <use x="934.667969" xlink:href="#Consolas-111"/>
     <use x="989.648438" xlink:href="#Consolas-110"/>
     <use x="1044.628906" xlink:href="#Consolas-97"/>
     <use x="1099.609375" xlink:href="#Consolas-118"/>
     <use x="1154.589844" xlink:href="#Consolas-105"/>
     <use x="1209.570312" xlink:href="#Consolas-114"/>
     <use x="1264.550781" xlink:href="#Consolas-117"/>
     <use x="1319.53125" xlink:href="#Consolas-115"/>
     <use x="1374.511719" xlink:href="#Consolas-32"/>
     <use x="1429.492188" xlink:href="#Consolas-45"/>
     <use x="1484.472656" xlink:href="#Consolas-32"/>
     <use x="1539.453125" xlink:href="#Consolas-80"/>
     <use x="1594.433594" xlink:href="#Consolas-108"/>
     <use x="1649.414062" xlink:href="#Consolas-111"/>
     <use x="1704.394531" xlink:href="#Consolas-116"/>
     <use x="1759.375" xlink:href="#Consolas-58"/>
     <use x="1814.355469" xlink:href="#Consolas-32"/>
     <use x="1869.335938" xlink:href="#Consolas-99"/>
     <use x="1924.316406" xlink:href="#Consolas-97"/>
     <use x="1979.296875" xlink:href="#Consolas-114"/>
     <use x="2034.277344" xlink:href="#Consolas-108"/>
     <use x="2089.257812" xlink:href="#Consolas-111"/>
     <use x="2144.238281" xlink:href="#Consolas-115"/>
     <use x="2199.21875" xlink:href="#Consolas-45"/>
     <use x="2254.199219" xlink:href="#Consolas-97"/>
     <use x="2309.179688" xlink:href="#Consolas-102"/>
     <use x="2364.160156" xlink:href="#Consolas-111"/>
     <use x="2419.140625" xlink:href="#Consolas-110"/>
     <use x="2474.121094" xlink:href="#Consolas-115"/>
     <use x="2529.101562" xlink:href="#Consolas-111"/>
     <use x="2584.082031" xlink:href="#Consolas-46"/>
     <use x="2639.0625" xlink:href="#Consolas-103"/>
     <use x="2694.042969" xlink:href="#Consolas-105"/>
     <use x="2749.023438" xlink:href="#Consolas-116"/>
     <use x="2804.003906" xlink:href="#Consolas-104"/>
     <use x="2858.984375" xlink:href="#Consolas-117"/>
     <use x="2913.964844" xlink:href="#Consolas-98"/>
     <use x="2968.945312" xlink:href="#Consolas-46"/>
     <use x="3023.925781" xlink:href="#Consolas-105"/>
     <use x="3078.90625" xlink:href="#Consolas-111"/>
     <use x="3133.886719" xlink:href="#Consolas-47"/>
     <use x="3188.867188" xlink:href="#Consolas-67"/>
     <use x="3243.847656" xlink:href="#Consolas-79"/>
     <use x="3298.828125" xlink:href="#Consolas-86"/>
     <use x="3353.808594" xlink:href="#Consolas-73"/>
     <use x="3408.789062" xlink:href="#Consolas-68"/>
     <use x="3463.769531" xlink:href="#Consolas-45"/>
     <use x="3518.75" xlink:href="#Consolas-49"/>
     <use x="3573.730469" xlink:href="#Consolas-57"/>
    </g>
   </g>
   <g id="text_12">
    <!-- as reported by NYC Health on March 23, 2020, 5pm -->
    <defs>
     <path d="M 44.28125 53.078125 
L 44.28125 44.578125 
Q 40.484375 46.53125 36.375 47.5 
Q 32.28125 48.484375 27.875 48.484375 
Q 21.1875 48.484375 17.84375 46.4375 
Q 14.5 44.390625 14.5 40.28125 
Q 14.5 37.15625 16.890625 35.375 
Q 19.28125 33.59375 26.515625 31.984375 
L 29.59375 31.296875 
Q 39.15625 29.25 43.1875 25.515625 
Q 47.21875 21.78125 47.21875 15.09375 
Q 47.21875 7.46875 41.1875 3.015625 
Q 35.15625 -1.421875 24.609375 -1.421875 
Q 20.21875 -1.421875 15.453125 -0.5625 
Q 10.6875 0.296875 5.421875 2 
L 5.421875 11.28125 
Q 10.40625 8.6875 15.234375 7.390625 
Q 20.0625 6.109375 24.8125 6.109375 
Q 31.15625 6.109375 34.5625 8.28125 
Q 37.984375 10.453125 37.984375 14.40625 
Q 37.984375 18.0625 35.515625 20.015625 
Q 33.0625 21.96875 24.703125 23.78125 
L 21.578125 24.515625 
Q 13.234375 26.265625 9.515625 29.90625 
Q 5.8125 33.546875 5.8125 39.890625 
Q 5.8125 47.609375 11.28125 51.796875 
Q 16.75 56 26.8125 56 
Q 31.78125 56 36.171875 55.265625 
Q 40.578125 54.546875 44.28125 53.078125 
z
" id="DejaVuSans-115"/>
     <path id="DejaVuSans-32"/>
     <path d="M 41.109375 46.296875 
Q 39.59375 47.171875 37.8125 47.578125 
Q 36.03125 48 33.890625 48 
Q 26.265625 48 22.1875 43.046875 
Q 18.109375 38.09375 18.109375 28.8125 
L 18.109375 0 
L 9.078125 0 
L 9.078125 54.6875 
L 18.109375 54.6875 
L 18.109375 46.1875 
Q 20.953125 51.171875 25.484375 53.578125 
Q 30.03125 56 36.53125 56 
Q 37.453125 56 38.578125 55.875 
Q 39.703125 55.765625 41.0625 55.515625 
z
" id="DejaVuSans-114"/>
     <path d="M 18.109375 8.203125 
L 18.109375 -20.796875 
L 9.078125 -20.796875 
L 9.078125 54.6875 
L 18.109375 54.6875 
L 18.109375 46.390625 
Q 20.953125 51.265625 25.265625 53.625 
Q 29.59375 56 35.59375 56 
Q 45.5625 56 51.78125 48.09375 
Q 58.015625 40.1875 58.015625 27.296875 
Q 58.015625 14.40625 51.78125 6.484375 
Q 45.5625 -1.421875 35.59375 -1.421875 
Q 29.59375 -1.421875 25.265625 0.953125 
Q 20.953125 3.328125 18.109375 8.203125 
z
M 48.6875 27.296875 
Q 48.6875 37.203125 44.609375 42.84375 
Q 40.53125 48.484375 33.40625 48.484375 
Q 26.265625 48.484375 22.1875 42.84375 
Q 18.109375 37.203125 18.109375 27.296875 
Q 18.109375 17.390625 22.1875 11.75 
Q 26.265625 6.109375 33.40625 6.109375 
Q 40.53125 6.109375 44.609375 11.75 
Q 48.6875 17.390625 48.6875 27.296875 
z
" id="DejaVuSans-112"/>
     <path d="M 30.609375 48.390625 
Q 23.390625 48.390625 19.1875 42.75 
Q 14.984375 37.109375 14.984375 27.296875 
Q 14.984375 17.484375 19.15625 11.84375 
Q 23.34375 6.203125 30.609375 6.203125 
Q 37.796875 6.203125 41.984375 11.859375 
Q 46.1875 17.53125 46.1875 27.296875 
Q 46.1875 37.015625 41.984375 42.703125 
Q 37.796875 48.390625 30.609375 48.390625 
z
M 30.609375 56 
Q 42.328125 56 49.015625 48.375 
Q 55.71875 40.765625 55.71875 27.296875 
Q 55.71875 13.875 49.015625 6.21875 
Q 42.328125 -1.421875 30.609375 -1.421875 
Q 18.84375 -1.421875 12.171875 6.21875 
Q 5.515625 13.875 5.515625 27.296875 
Q 5.515625 40.765625 12.171875 48.375 
Q 18.84375 56 30.609375 56 
z
" id="DejaVuSans-111"/>
     <path d="M 18.3125 70.21875 
L 18.3125 54.6875 
L 36.8125 54.6875 
L 36.8125 47.703125 
L 18.3125 47.703125 
L 18.3125 18.015625 
Q 18.3125 11.328125 20.140625 9.421875 
Q 21.96875 7.515625 27.59375 7.515625 
L 36.8125 7.515625 
L 36.8125 0 
L 27.59375 0 
Q 17.1875 0 13.234375 3.875 
Q 9.28125 7.765625 9.28125 18.015625 
L 9.28125 47.703125 
L 2.6875 47.703125 
L 2.6875 54.6875 
L 9.28125 54.6875 
L 9.28125 70.21875 
z
" id="DejaVuSans-116"/>
     <path d="M 45.40625 46.390625 
L 45.40625 75.984375 
L 54.390625 75.984375 
L 54.390625 0 
L 45.40625 0 
L 45.40625 8.203125 
Q 42.578125 3.328125 38.25 0.953125 
Q 33.9375 -1.421875 27.875 -1.421875 
Q 17.96875 -1.421875 11.734375 6.484375 
Q 5.515625 14.40625 5.515625 27.296875 
Q 5.515625 40.1875 11.734375 48.09375 
Q 17.96875 56 27.875 56 
Q 33.9375 56 38.25 53.625 
Q 42.578125 51.265625 45.40625 46.390625 
z
M 14.796875 27.296875 
Q 14.796875 17.390625 18.875 11.75 
Q 22.953125 6.109375 30.078125 6.109375 
Q 37.203125 6.109375 41.296875 11.75 
Q 45.40625 17.390625 45.40625 27.296875 
Q 45.40625 37.203125 41.296875 42.84375 
Q 37.203125 48.484375 30.078125 48.484375 
Q 22.953125 48.484375 18.875 42.84375 
Q 14.796875 37.203125 14.796875 27.296875 
z
" id="DejaVuSans-100"/>
     <path d="M 48.6875 27.296875 
Q 48.6875 37.203125 44.609375 42.84375 
Q 40.53125 48.484375 33.40625 48.484375 
Q 26.265625 48.484375 22.1875 42.84375 
Q 18.109375 37.203125 18.109375 27.296875 
Q 18.109375 17.390625 22.1875 11.75 
Q 26.265625 6.109375 33.40625 6.109375 
Q 40.53125 6.109375 44.609375 11.75 
Q 48.6875 17.390625 48.6875 27.296875 
z
M 18.109375 46.390625 
Q 20.953125 51.265625 25.265625 53.625 
Q 29.59375 56 35.59375 56 
Q 45.5625 56 51.78125 48.09375 
Q 58.015625 40.1875 58.015625 27.296875 
Q 58.015625 14.40625 51.78125 6.484375 
Q 45.5625 -1.421875 35.59375 -1.421875 
Q 29.59375 -1.421875 25.265625 0.953125 
Q 20.953125 3.328125 18.109375 8.203125 
L 18.109375 0 
L 9.078125 0 
L 9.078125 75.984375 
L 18.109375 75.984375 
z
" id="DejaVuSans-98"/>
     <path d="M 32.171875 -5.078125 
Q 28.375 -14.84375 24.75 -17.8125 
Q 21.140625 -20.796875 15.09375 -20.796875 
L 7.90625 -20.796875 
L 7.90625 -13.28125 
L 13.1875 -13.28125 
Q 16.890625 -13.28125 18.9375 -11.515625 
Q 21 -9.765625 23.484375 -3.21875 
L 25.09375 0.875 
L 2.984375 54.6875 
L 12.5 54.6875 
L 29.59375 11.921875 
L 46.6875 54.6875 
L 56.203125 54.6875 
z
" id="DejaVuSans-121"/>
     <path d="M 9.8125 72.90625 
L 23.09375 72.90625 
L 55.421875 11.921875 
L 55.421875 72.90625 
L 64.984375 72.90625 
L 64.984375 0 
L 51.703125 0 
L 19.390625 60.984375 
L 19.390625 0 
L 9.8125 0 
z
" id="DejaVuSans-78"/>
     <path d="M -0.203125 72.90625 
L 10.40625 72.90625 
L 30.609375 42.921875 
L 50.6875 72.90625 
L 61.28125 72.90625 
L 35.5 34.71875 
L 35.5 0 
L 25.59375 0 
L 25.59375 34.71875 
z
" id="DejaVuSans-89"/>
     <path d="M 64.40625 67.28125 
L 64.40625 56.890625 
Q 59.421875 61.53125 53.78125 63.8125 
Q 48.140625 66.109375 41.796875 66.109375 
Q 29.296875 66.109375 22.65625 58.46875 
Q 16.015625 50.828125 16.015625 36.375 
Q 16.015625 21.96875 22.65625 14.328125 
Q 29.296875 6.6875 41.796875 6.6875 
Q 48.140625 6.6875 53.78125 8.984375 
Q 59.421875 11.28125 64.40625 15.921875 
L 64.40625 5.609375 
Q 59.234375 2.09375 53.4375 0.328125 
Q 47.65625 -1.421875 41.21875 -1.421875 
Q 24.65625 -1.421875 15.125 8.703125 
Q 5.609375 18.84375 5.609375 36.375 
Q 5.609375 53.953125 15.125 64.078125 
Q 24.65625 74.21875 41.21875 74.21875 
Q 47.75 74.21875 53.53125 72.484375 
Q 59.328125 70.75 64.40625 67.28125 
z
" id="DejaVuSans-67"/>
     <path d="M 9.8125 72.90625 
L 19.671875 72.90625 
L 19.671875 43.015625 
L 55.515625 43.015625 
L 55.515625 72.90625 
L 65.375 72.90625 
L 65.375 0 
L 55.515625 0 
L 55.515625 34.71875 
L 19.671875 34.71875 
L 19.671875 0 
L 9.8125 0 
z
" id="DejaVuSans-72"/>
     <path d="M 54.890625 33.015625 
L 54.890625 0 
L 45.90625 0 
L 45.90625 32.71875 
Q 45.90625 40.484375 42.875 44.328125 
Q 39.84375 48.1875 33.796875 48.1875 
Q 26.515625 48.1875 22.3125 43.546875 
Q 18.109375 38.921875 18.109375 30.90625 
L 18.109375 0 
L 9.078125 0 
L 9.078125 75.984375 
L 18.109375 75.984375 
L 18.109375 46.1875 
Q 21.34375 51.125 25.703125 53.5625 
Q 30.078125 56 35.796875 56 
Q 45.21875 56 50.046875 50.171875 
Q 54.890625 44.34375 54.890625 33.015625 
z
" id="DejaVuSans-104"/>
     <path d="M 54.890625 33.015625 
L 54.890625 0 
L 45.90625 0 
L 45.90625 32.71875 
Q 45.90625 40.484375 42.875 44.328125 
Q 39.84375 48.1875 33.796875 48.1875 
Q 26.515625 48.1875 22.3125 43.546875 
Q 18.109375 38.921875 18.109375 30.90625 
L 18.109375 0 
L 9.078125 0 
L 9.078125 54.6875 
L 18.109375 54.6875 
L 18.109375 46.1875 
Q 21.34375 51.125 25.703125 53.5625 
Q 30.078125 56 35.796875 56 
Q 45.21875 56 50.046875 50.171875 
Q 54.890625 44.34375 54.890625 33.015625 
z
" id="DejaVuSans-110"/>
     <path d="M 48.78125 52.59375 
L 48.78125 44.1875 
Q 44.96875 46.296875 41.140625 47.34375 
Q 37.3125 48.390625 33.40625 48.390625 
Q 24.65625 48.390625 19.8125 42.84375 
Q 14.984375 37.3125 14.984375 27.296875 
Q 14.984375 17.28125 19.8125 11.734375 
Q 24.65625 6.203125 33.40625 6.203125 
Q 37.3125 6.203125 41.140625 7.25 
Q 44.96875 8.296875 48.78125 10.40625 
L 48.78125 2.09375 
Q 45.015625 0.34375 40.984375 -0.53125 
Q 36.96875 -1.421875 32.421875 -1.421875 
Q 20.0625 -1.421875 12.78125 6.34375 
Q 5.515625 14.109375 5.515625 27.296875 
Q 5.515625 40.671875 12.859375 48.328125 
Q 20.21875 56 33.015625 56 
Q 37.15625 56 41.109375 55.140625 
Q 45.0625 54.296875 48.78125 52.59375 
z
" id="DejaVuSans-99"/>
    </defs>
    <g transform="translate(87.932344 33.2)scale(0.11 -0.11)">
     <use xlink:href="#DejaVuSans-97"/>
     <use x="61.279297" xlink:href="#DejaVuSans-115"/>
     <use x="113.378906" xlink:href="#DejaVuSans-32"/>
     <use x="145.166016" xlink:href="#DejaVuSans-114"/>
     <use x="186.248047" xlink:href="#DejaVuSans-101"/>
     <use x="247.771484" xlink:href="#DejaVuSans-112"/>
     <use x="311.248047" xlink:href="#DejaVuSans-111"/>
     <use x="372.429688" xlink:href="#DejaVuSans-114"/>
     <use x="413.542969" xlink:href="#DejaVuSans-116"/>
     <use x="452.751953" xlink:href="#DejaVuSans-101"/>
     <use x="514.275391" xlink:href="#DejaVuSans-100"/>
     <use x="577.751953" xlink:href="#DejaVuSans-32"/>
     <use x="609.539062" xlink:href="#DejaVuSans-98"/>
     <use x="673.015625" xlink:href="#DejaVuSans-121"/>
     <use x="732.195312" xlink:href="#DejaVuSans-32"/>
     <use x="763.982422" xlink:href="#DejaVuSans-78"/>
     <use x="838.787109" xlink:href="#DejaVuSans-89"/>
     <use x="899.792969" xlink:href="#DejaVuSans-67"/>
     <use x="969.617188" xlink:href="#DejaVuSans-32"/>
     <use x="1001.404297" xlink:href="#DejaVuSans-72"/>
     <use x="1076.599609" xlink:href="#DejaVuSans-101"/>
     <use x="1138.123047" xlink:href="#DejaVuSans-97"/>
     <use x="1199.402344" xlink:href="#DejaVuSans-108"/>
     <use x="1227.185547" xlink:href="#DejaVuSans-116"/>
     <use x="1266.394531" xlink:href="#DejaVuSans-104"/>
     <use x="1329.773438" xlink:href="#DejaVuSans-32"/>
     <use x="1361.560547" xlink:href="#DejaVuSans-111"/>
     <use x="1422.742188" xlink:href="#DejaVuSans-110"/>
     <use x="1486.121094" xlink:href="#DejaVuSans-32"/>
     <use x="1517.908203" xlink:href="#DejaVuSans-77"/>
     <use x="1604.1875" xlink:href="#DejaVuSans-97"/>
     <use x="1665.466797" xlink:href="#DejaVuSans-114"/>
     <use x="1706.548828" xlink:href="#DejaVuSans-99"/>
     <use x="1761.529297" xlink:href="#DejaVuSans-104"/>
     <use x="1824.908203" xlink:href="#DejaVuSans-32"/>
     <use x="1856.695312" xlink:href="#DejaVuSans-50"/>
     <use x="1920.318359" xlink:href="#DejaVuSans-51"/>
     <use x="1983.941406" xlink:href="#DejaVuSans-44"/>
     <use x="2015.728516" xlink:href="#DejaVuSans-32"/>
     <use x="2047.515625" xlink:href="#DejaVuSans-50"/>
     <use x="2111.138672" xlink:href="#DejaVuSans-48"/>
     <use x="2174.761719" xlink:href="#DejaVuSans-50"/>
     <use x="2238.384766" xlink:href="#DejaVuSans-48"/>
     <use x="2302.007812" xlink:href="#DejaVuSans-44"/>
     <use x="2333.794922" xlink:href="#DejaVuSans-32"/>
     <use x="2365.582031" xlink:href="#DejaVuSans-53"/>
     <use x="2429.205078" xlink:href="#DejaVuSans-112"/>
     <use x="2492.681641" xlink:href="#DejaVuSans-109"/>
    </g>
   </g>
  </g>
  <g id="text_13">
   <!-- Sex breakdown of COVID-19 cases in NYC -->
   <defs>
    <path d="M 59.90625 70.609375 
L 59.90625 55.171875 
Q 53.90625 57.859375 48.1875 59.21875 
Q 42.484375 60.59375 37.40625 60.59375 
Q 30.671875 60.59375 27.4375 58.734375 
Q 24.21875 56.890625 24.21875 52.984375 
Q 24.21875 50.046875 26.390625 48.40625 
Q 28.5625 46.78125 34.28125 45.609375 
L 42.28125 44 
Q 54.4375 41.546875 59.5625 36.5625 
Q 64.703125 31.59375 64.703125 22.40625 
Q 64.703125 10.359375 57.546875 4.46875 
Q 50.390625 -1.421875 35.6875 -1.421875 
Q 28.765625 -1.421875 21.78125 -0.09375 
Q 14.796875 1.21875 7.8125 3.8125 
L 7.8125 19.671875 
Q 14.796875 15.96875 21.3125 14.078125 
Q 27.828125 12.203125 33.890625 12.203125 
Q 40.046875 12.203125 43.3125 14.25 
Q 46.578125 16.3125 46.578125 20.125 
Q 46.578125 23.53125 44.359375 25.390625 
Q 42.140625 27.25 35.5 28.71875 
L 28.21875 30.328125 
Q 17.28125 32.671875 12.21875 37.796875 
Q 7.171875 42.921875 7.171875 51.609375 
Q 7.171875 62.5 14.203125 68.359375 
Q 21.234375 74.21875 34.421875 74.21875 
Q 40.4375 74.21875 46.78125 73.3125 
Q 53.125 72.40625 59.90625 70.609375 
z
" id="DejaVuSans-Bold-83"/>
    <path d="M 62.984375 27.484375 
L 62.984375 22.515625 
L 22.125 22.515625 
Q 22.75 16.359375 26.5625 13.28125 
Q 30.375 10.203125 37.203125 10.203125 
Q 42.71875 10.203125 48.5 11.84375 
Q 54.296875 13.484375 60.40625 16.796875 
L 60.40625 3.328125 
Q 54.203125 0.984375 48 -0.21875 
Q 41.796875 -1.421875 35.59375 -1.421875 
Q 20.75 -1.421875 12.515625 6.125 
Q 4.296875 13.671875 4.296875 27.296875 
Q 4.296875 40.671875 12.375 48.328125 
Q 20.453125 56 34.625 56 
Q 47.515625 56 55.25 48.234375 
Q 62.984375 40.484375 62.984375 27.484375 
z
M 45.015625 33.296875 
Q 45.015625 38.28125 42.109375 41.328125 
Q 39.203125 44.390625 34.515625 44.390625 
Q 29.4375 44.390625 26.265625 41.53125 
Q 23.09375 38.671875 22.3125 33.296875 
z
" id="DejaVuSans-Bold-101"/>
    <path d="M 22.21875 27.984375 
L 2.484375 54.6875 
L 21 54.6875 
L 32.171875 38.484375 
L 43.5 54.6875 
L 62.015625 54.6875 
L 42.28125 28.078125 
L 62.984375 0 
L 44.484375 0 
L 32.171875 17.28125 
L 20.015625 0 
L 1.515625 0 
z
" id="DejaVuSans-Bold-120"/>
    <path id="DejaVuSans-Bold-32"/>
    <path d="M 37.5 11.28125 
Q 43.109375 11.28125 46.0625 15.375 
Q 49.03125 19.484375 49.03125 27.296875 
Q 49.03125 35.109375 46.0625 39.203125 
Q 43.109375 43.3125 37.5 43.3125 
Q 31.890625 43.3125 28.875 39.1875 
Q 25.875 35.0625 25.875 27.296875 
Q 25.875 19.53125 28.875 15.40625 
Q 31.890625 11.28125 37.5 11.28125 
z
M 25.875 46.6875 
Q 29.5 51.46875 33.890625 53.734375 
Q 38.28125 56 44 56 
Q 54.109375 56 60.59375 47.96875 
Q 67.09375 39.9375 67.09375 27.296875 
Q 67.09375 14.65625 60.59375 6.609375 
Q 54.109375 -1.421875 44 -1.421875 
Q 38.28125 -1.421875 33.890625 0.84375 
Q 29.5 3.125 25.875 7.90625 
L 25.875 0 
L 8.40625 0 
L 8.40625 75.984375 
L 25.875 75.984375 
z
" id="DejaVuSans-Bold-98"/>
    <path d="M 49.03125 39.796875 
Q 46.734375 40.875 44.453125 41.375 
Q 42.1875 41.890625 39.890625 41.890625 
Q 33.15625 41.890625 29.515625 37.5625 
Q 25.875 33.25 25.875 25.203125 
L 25.875 0 
L 8.40625 0 
L 8.40625 54.6875 
L 25.875 54.6875 
L 25.875 45.703125 
Q 29.25 51.078125 33.609375 53.53125 
Q 37.984375 56 44.09375 56 
Q 44.96875 56 45.984375 55.921875 
Q 47.015625 55.859375 48.96875 55.609375 
z
" id="DejaVuSans-Bold-114"/>
    <path d="M 32.90625 24.609375 
Q 27.4375 24.609375 24.671875 22.75 
Q 21.921875 20.90625 21.921875 17.28125 
Q 21.921875 13.96875 24.140625 12.078125 
Q 26.375 10.203125 30.328125 10.203125 
Q 35.25 10.203125 38.625 13.734375 
Q 42 17.28125 42 22.609375 
L 42 24.609375 
z
M 59.625 31.203125 
L 59.625 0 
L 42 0 
L 42 8.109375 
Q 38.484375 3.125 34.078125 0.84375 
Q 29.6875 -1.421875 23.390625 -1.421875 
Q 14.890625 -1.421875 9.59375 3.53125 
Q 4.296875 8.5 4.296875 16.40625 
Q 4.296875 26.03125 10.90625 30.515625 
Q 17.53125 35.015625 31.6875 35.015625 
L 42 35.015625 
L 42 36.375 
Q 42 40.53125 38.71875 42.453125 
Q 35.453125 44.390625 28.515625 44.390625 
Q 22.90625 44.390625 18.0625 43.265625 
Q 13.234375 42.140625 9.078125 39.890625 
L 9.078125 53.21875 
Q 14.703125 54.59375 20.359375 55.296875 
Q 26.03125 56 31.6875 56 
Q 46.484375 56 53.046875 50.171875 
Q 59.625 44.34375 59.625 31.203125 
z
" id="DejaVuSans-Bold-97"/>
    <path d="M 8.40625 75.984375 
L 25.875 75.984375 
L 25.875 34.625 
L 46 54.6875 
L 66.3125 54.6875 
L 39.59375 29.59375 
L 68.40625 0 
L 47.21875 0 
L 25.875 22.796875 
L 25.875 0 
L 8.40625 0 
z
" id="DejaVuSans-Bold-107"/>
    <path d="M 45.609375 46.6875 
L 45.609375 75.984375 
L 63.1875 75.984375 
L 63.1875 0 
L 45.609375 0 
L 45.609375 7.90625 
Q 42 3.078125 37.640625 0.828125 
Q 33.296875 -1.421875 27.59375 -1.421875 
Q 17.484375 -1.421875 10.984375 6.609375 
Q 4.5 14.65625 4.5 27.296875 
Q 4.5 39.9375 10.984375 47.96875 
Q 17.484375 56 27.59375 56 
Q 33.25 56 37.625 53.734375 
Q 42 51.46875 45.609375 46.6875 
z
M 34.078125 11.28125 
Q 39.703125 11.28125 42.65625 15.375 
Q 45.609375 19.484375 45.609375 27.296875 
Q 45.609375 35.109375 42.65625 39.203125 
Q 39.703125 43.3125 34.078125 43.3125 
Q 28.515625 43.3125 25.5625 39.203125 
Q 22.609375 35.109375 22.609375 27.296875 
Q 22.609375 19.484375 25.5625 15.375 
Q 28.515625 11.28125 34.078125 11.28125 
z
" id="DejaVuSans-Bold-100"/>
    <path d="M 34.421875 43.5 
Q 28.609375 43.5 25.5625 39.328125 
Q 22.515625 35.15625 22.515625 27.296875 
Q 22.515625 19.4375 25.5625 15.25 
Q 28.609375 11.078125 34.421875 11.078125 
Q 40.140625 11.078125 43.15625 15.25 
Q 46.1875 19.4375 46.1875 27.296875 
Q 46.1875 35.15625 43.15625 39.328125 
Q 40.140625 43.5 34.421875 43.5 
z
M 34.421875 56 
Q 48.53125 56 56.46875 48.375 
Q 64.40625 40.765625 64.40625 27.296875 
Q 64.40625 13.8125 56.46875 6.1875 
Q 48.53125 -1.421875 34.421875 -1.421875 
Q 20.265625 -1.421875 12.28125 6.1875 
Q 4.296875 13.8125 4.296875 27.296875 
Q 4.296875 40.765625 12.28125 48.375 
Q 20.265625 56 34.421875 56 
z
" id="DejaVuSans-Bold-111"/>
    <path d="M 3.515625 54.6875 
L 20.515625 54.6875 
L 29.6875 17 
L 38.921875 54.6875 
L 53.515625 54.6875 
L 62.703125 17.390625 
L 71.921875 54.6875 
L 88.921875 54.6875 
L 74.515625 0 
L 55.421875 0 
L 46.1875 37.59375 
L 37.015625 0 
L 17.921875 0 
z
" id="DejaVuSans-Bold-119"/>
    <path d="M 63.375 33.296875 
L 63.375 0 
L 45.796875 0 
L 45.796875 5.421875 
L 45.796875 25.484375 
Q 45.796875 32.5625 45.484375 35.25 
Q 45.171875 37.9375 44.390625 39.203125 
Q 43.359375 40.921875 41.59375 41.875 
Q 39.84375 42.828125 37.59375 42.828125 
Q 32.125 42.828125 29 38.59375 
Q 25.875 34.375 25.875 26.90625 
L 25.875 0 
L 8.40625 0 
L 8.40625 54.6875 
L 25.875 54.6875 
L 25.875 46.6875 
Q 29.828125 51.46875 34.265625 53.734375 
Q 38.71875 56 44.09375 56 
Q 53.5625 56 58.46875 50.1875 
Q 63.375 44.390625 63.375 33.296875 
z
" id="DejaVuSans-Bold-110"/>
    <path d="M 44.390625 75.984375 
L 44.390625 64.5 
L 34.71875 64.5 
Q 31 64.5 29.53125 63.15625 
Q 28.078125 61.8125 28.078125 58.5 
L 28.078125 54.6875 
L 43.015625 54.6875 
L 43.015625 42.1875 
L 28.078125 42.1875 
L 28.078125 0 
L 10.59375 0 
L 10.59375 42.1875 
L 1.90625 42.1875 
L 1.90625 54.6875 
L 10.59375 54.6875 
L 10.59375 58.5 
Q 10.59375 67.4375 15.578125 71.703125 
Q 20.5625 75.984375 31 75.984375 
z
" id="DejaVuSans-Bold-102"/>
    <path d="M 67 4 
Q 61.8125 1.3125 56.203125 -0.046875 
Q 50.59375 -1.421875 44.484375 -1.421875 
Q 26.265625 -1.421875 15.625 8.765625 
Q 4.984375 18.953125 4.984375 36.375 
Q 4.984375 53.859375 15.625 64.03125 
Q 26.265625 74.21875 44.484375 74.21875 
Q 50.59375 74.21875 56.203125 72.84375 
Q 61.8125 71.484375 67 68.796875 
L 67 53.71875 
Q 61.765625 57.28125 56.6875 58.9375 
Q 51.609375 60.59375 46 60.59375 
Q 35.9375 60.59375 30.171875 54.140625 
Q 24.421875 47.703125 24.421875 36.375 
Q 24.421875 25.09375 30.171875 18.640625 
Q 35.9375 12.203125 46 12.203125 
Q 51.609375 12.203125 56.6875 13.859375 
Q 61.765625 15.53125 67 19.09375 
z
" id="DejaVuSans-Bold-67"/>
    <path d="M 42.484375 60.59375 
Q 33.890625 60.59375 29.15625 54.25 
Q 24.421875 47.90625 24.421875 36.375 
Q 24.421875 24.90625 29.15625 18.546875 
Q 33.890625 12.203125 42.484375 12.203125 
Q 51.125 12.203125 55.859375 18.546875 
Q 60.59375 24.90625 60.59375 36.375 
Q 60.59375 47.90625 55.859375 54.25 
Q 51.125 60.59375 42.484375 60.59375 
z
M 42.484375 74.21875 
Q 60.0625 74.21875 70.015625 64.15625 
Q 79.984375 54.109375 79.984375 36.375 
Q 79.984375 18.703125 70.015625 8.640625 
Q 60.0625 -1.421875 42.484375 -1.421875 
Q 24.953125 -1.421875 14.96875 8.640625 
Q 4.984375 18.703125 4.984375 36.375 
Q 4.984375 54.109375 14.96875 64.15625 
Q 24.953125 74.21875 42.484375 74.21875 
z
" id="DejaVuSans-Bold-79"/>
    <path d="M 0.484375 72.90625 
L 19.390625 72.90625 
L 38.71875 19.09375 
L 58.015625 72.90625 
L 76.90625 72.90625 
L 49.90625 0 
L 27.484375 0 
z
" id="DejaVuSans-Bold-86"/>
    <path d="M 9.1875 72.90625 
L 27.984375 72.90625 
L 27.984375 0 
L 9.1875 0 
z
" id="DejaVuSans-Bold-73"/>
    <path d="M 27.984375 58.6875 
L 27.984375 14.203125 
L 34.71875 14.203125 
Q 46.234375 14.203125 52.3125 19.921875 
Q 58.40625 25.640625 58.40625 36.53125 
Q 58.40625 47.359375 52.34375 53.015625 
Q 46.296875 58.6875 34.71875 58.6875 
z
M 9.1875 72.90625 
L 29 72.90625 
Q 45.609375 72.90625 53.734375 70.53125 
Q 61.859375 68.171875 67.671875 62.5 
Q 72.796875 57.5625 75.28125 51.109375 
Q 77.78125 44.671875 77.78125 36.53125 
Q 77.78125 28.265625 75.28125 21.796875 
Q 72.796875 15.328125 67.671875 10.40625 
Q 61.8125 4.734375 53.609375 2.359375 
Q 45.40625 0 29 0 
L 9.1875 0 
z
" id="DejaVuSans-Bold-68"/>
    <path d="M 5.421875 35.890625 
L 36.078125 35.890625 
L 36.078125 21.6875 
L 5.421875 21.6875 
z
" id="DejaVuSans-Bold-45"/>
    <path d="M 11.71875 12.984375 
L 28.328125 12.984375 
L 28.328125 60.109375 
L 11.28125 56.59375 
L 11.28125 69.390625 
L 28.21875 72.90625 
L 46.09375 72.90625 
L 46.09375 12.984375 
L 62.703125 12.984375 
L 62.703125 0 
L 11.71875 0 
z
" id="DejaVuSans-Bold-49"/>
    <path d="M 10.015625 1.609375 
L 10.015625 15.09375 
Q 14.5 12.984375 18.59375 11.9375 
Q 22.703125 10.890625 26.703125 10.890625 
Q 35.109375 10.890625 39.796875 15.546875 
Q 44.484375 20.21875 45.3125 29.390625 
Q 42 26.953125 38.234375 25.734375 
Q 34.46875 24.515625 30.078125 24.515625 
Q 18.890625 24.515625 12.03125 31.03125 
Q 5.171875 37.546875 5.171875 48.1875 
Q 5.171875 59.96875 12.8125 67.046875 
Q 20.453125 74.125 33.296875 74.125 
Q 47.5625 74.125 55.375 64.5 
Q 63.1875 54.890625 63.1875 37.3125 
Q 63.1875 19.234375 54.046875 8.90625 
Q 44.921875 -1.421875 29 -1.421875 
Q 23.875 -1.421875 19.1875 -0.65625 
Q 14.5 0.09375 10.015625 1.609375 
z
M 33.203125 36.71875 
Q 38.140625 36.71875 40.625 39.90625 
Q 43.109375 43.109375 43.109375 49.515625 
Q 43.109375 55.859375 40.625 59.078125 
Q 38.140625 62.3125 33.203125 62.3125 
Q 28.265625 62.3125 25.78125 59.078125 
Q 23.296875 55.859375 23.296875 49.515625 
Q 23.296875 43.109375 25.78125 39.90625 
Q 28.265625 36.71875 33.203125 36.71875 
z
" id="DejaVuSans-Bold-57"/>
    <path d="M 52.59375 52.984375 
L 52.59375 38.71875 
Q 49.03125 41.15625 45.4375 42.328125 
Q 41.84375 43.5 37.984375 43.5 
Q 30.671875 43.5 26.59375 39.234375 
Q 22.515625 34.96875 22.515625 27.296875 
Q 22.515625 19.625 26.59375 15.34375 
Q 30.671875 11.078125 37.984375 11.078125 
Q 42.09375 11.078125 45.78125 12.296875 
Q 49.46875 13.53125 52.59375 15.921875 
L 52.59375 1.609375 
Q 48.484375 0.09375 44.265625 -0.65625 
Q 40.046875 -1.421875 35.796875 -1.421875 
Q 21 -1.421875 12.640625 6.171875 
Q 4.296875 13.765625 4.296875 27.296875 
Q 4.296875 40.828125 12.640625 48.40625 
Q 21 56 35.796875 56 
Q 40.09375 56 44.265625 55.25 
Q 48.4375 54.5 52.59375 52.984375 
z
" id="DejaVuSans-Bold-99"/>
    <path d="M 51.125 52.984375 
L 51.125 39.703125 
Q 45.515625 42.046875 40.28125 43.21875 
Q 35.0625 44.390625 30.421875 44.390625 
Q 25.4375 44.390625 23.015625 43.140625 
Q 20.609375 41.890625 20.609375 39.3125 
Q 20.609375 37.203125 22.4375 36.078125 
Q 24.265625 34.96875 29 34.421875 
L 32.078125 33.984375 
Q 45.515625 32.28125 50.140625 28.375 
Q 54.78125 24.46875 54.78125 16.109375 
Q 54.78125 7.375 48.328125 2.96875 
Q 41.890625 -1.421875 29.109375 -1.421875 
Q 23.6875 -1.421875 17.890625 -0.5625 
Q 12.109375 0.296875 6 2 
L 6 15.28125 
Q 11.234375 12.75 16.71875 11.46875 
Q 22.21875 10.203125 27.875 10.203125 
Q 33.015625 10.203125 35.59375 11.609375 
Q 38.1875 13.03125 38.1875 15.828125 
Q 38.1875 18.171875 36.40625 19.3125 
Q 34.625 20.453125 29.296875 21.09375 
L 26.21875 21.484375 
Q 14.546875 22.953125 9.859375 26.90625 
Q 5.171875 30.859375 5.171875 38.921875 
Q 5.171875 47.609375 11.125 51.796875 
Q 17.09375 56 29.390625 56 
Q 34.234375 56 39.546875 55.265625 
Q 44.875 54.546875 51.125 52.984375 
z
" id="DejaVuSans-Bold-115"/>
    <path d="M 8.40625 54.6875 
L 25.875 54.6875 
L 25.875 0 
L 8.40625 0 
z
M 8.40625 75.984375 
L 25.875 75.984375 
L 25.875 61.71875 
L 8.40625 61.71875 
z
" id="DejaVuSans-Bold-105"/>
    <path d="M 9.1875 72.90625 
L 30.171875 72.90625 
L 56.6875 22.90625 
L 56.6875 72.90625 
L 74.515625 72.90625 
L 74.515625 0 
L 53.515625 0 
L 27 50 
L 27 0 
L 9.1875 0 
z
" id="DejaVuSans-Bold-78"/>
    <path d="M -0.984375 72.90625 
L 19.578125 72.90625 
L 36.1875 46.921875 
L 52.78125 72.90625 
L 73.390625 72.90625 
L 45.609375 30.71875 
L 45.609375 0 
L 26.8125 0 
L 26.8125 30.71875 
z
" id="DejaVuSans-Bold-89"/>
   </defs>
   <g transform="translate(84.409688 14.878125)scale(0.12 -0.12)">
    <use xlink:href="#DejaVuSans-Bold-83"/>
    <use x="72.021484" xlink:href="#DejaVuSans-Bold-101"/>
    <use x="139.84375" xlink:href="#DejaVuSans-Bold-120"/>
    <use x="204.345703" xlink:href="#DejaVuSans-Bold-32"/>
    <use x="239.160156" xlink:href="#DejaVuSans-Bold-98"/>
    <use x="310.742188" xlink:href="#DejaVuSans-Bold-114"/>
    <use x="360.058594" xlink:href="#DejaVuSans-Bold-101"/>
    <use x="427.880859" xlink:href="#DejaVuSans-Bold-97"/>
    <use x="495.361328" xlink:href="#DejaVuSans-Bold-107"/>
    <use x="561.865234" xlink:href="#DejaVuSans-Bold-100"/>
    <use x="633.447266" xlink:href="#DejaVuSans-Bold-111"/>
    <use x="702.148438" xlink:href="#DejaVuSans-Bold-119"/>
    <use x="794.53125" xlink:href="#DejaVuSans-Bold-110"/>
    <use x="865.722656" xlink:href="#DejaVuSans-Bold-32"/>
    <use x="900.537109" xlink:href="#DejaVuSans-Bold-111"/>
    <use x="969.238281" xlink:href="#DejaVuSans-Bold-102"/>
    <use x="1012.744141" xlink:href="#DejaVuSans-Bold-32"/>
    <use x="1047.558594" xlink:href="#DejaVuSans-Bold-67"/>
    <use x="1120.947266" xlink:href="#DejaVuSans-Bold-79"/>
    <use x="1205.925781" xlink:href="#DejaVuSans-Bold-86"/>
    <use x="1283.318359" xlink:href="#DejaVuSans-Bold-73"/>
    <use x="1320.525391" xlink:href="#DejaVuSans-Bold-68"/>
    <use x="1403.548828" xlink:href="#DejaVuSans-Bold-45"/>
    <use x="1445.052734" xlink:href="#DejaVuSans-Bold-49"/>
    <use x="1514.632812" xlink:href="#DejaVuSans-Bold-57"/>
    <use x="1584.212891" xlink:href="#DejaVuSans-Bold-32"/>
    <use x="1619.027344" xlink:href="#DejaVuSans-Bold-99"/>
    <use x="1678.304688" xlink:href="#DejaVuSans-Bold-97"/>
    <use x="1745.785156" xlink:href="#DejaVuSans-Bold-115"/>
    <use x="1805.306641" xlink:href="#DejaVuSans-Bold-101"/>
    <use x="1873.128906" xlink:href="#DejaVuSans-Bold-115"/>
    <use x="1932.650391" xlink:href="#DejaVuSans-Bold-32"/>
    <use x="1967.464844" xlink:href="#DejaVuSans-Bold-105"/>
    <use x="2001.742188" xlink:href="#DejaVuSans-Bold-110"/>
    <use x="2072.933594" xlink:href="#DejaVuSans-Bold-32"/>
    <use x="2107.748047" xlink:href="#DejaVuSans-Bold-78"/>
    <use x="2191.439453" xlink:href="#DejaVuSans-Bold-89"/>
    <use x="2263.804688" xlink:href="#DejaVuSans-Bold-67"/>
   </g>
  </g>
 </g>
 <defs>
  <clipPath id="p4d1ee55bb6">
   <rect height="196.8608" width="362.425" x="49.175" y="39.2"/>
  </clipPath>
 </defs>
</svg>
